<svg width="197" height="134" viewBox="0 0 197 134" fill="none" xmlns="http://www.w3.org/2000/svg">
<path d="M0 133C0 132.153 0 131.305 0 130.373C1.08293 130.353 2.10745 130.365 3.12953 130.363C4.16135 130.361 5.19074 130.363 6.18849 130.363C6.23473 130.319 6.24933 130.307 6.2615 130.293C6.2761 130.278 6.29314 130.266 6.298 130.249C6.30774 130.213 6.3126 130.174 6.31747 130.135C6.31991 130.097 6.31991 130.058 6.32234 130.019C6.32234 129.942 6.32234 129.864 6.32234 129.787C6.32234 110.515 6.32477 91.2467 6.32477 71.9754C6.32477 71.9367 6.33207 71.8979 6.33937 71.8616C6.34181 71.8422 6.34911 71.8253 6.37101 71.7575C6.49755 71.7405 6.646 71.7066 6.79201 71.7066C8.66097 71.7018 10.5299 71.7115 12.3965 71.697C12.7104 71.6945 12.8953 71.789 13.0365 72.0723C13.3747 72.7479 13.8687 73.3751 14.061 74.0847C14.2411 74.7554 14.1243 75.5062 14.1243 76.223C14.1267 90.3797 14.1243 104.536 14.1243 118.696C14.1243 118.943 14.1243 119.19 14.1243 119.475C14.5769 119.475 14.9736 119.475 15.4286 119.475C15.4286 109.544 15.4286 99.64 15.4286 89.6799C16.424 89.583 17.3706 89.692 18.3781 89.6072C18.3781 87.3769 18.3781 85.1587 18.3781 82.9308C18.911 82.7637 19.3953 82.8606 19.8723 82.8437C20.3371 82.8267 20.8019 82.8388 21.291 82.8388C21.3641 83.0228 21.4346 83.1778 21.4857 83.3401C21.9359 84.7398 22.391 86.1395 22.8217 87.5464C22.9215 87.8733 22.9775 88.2269 22.9751 88.5683C22.9532 94.2809 22.9191 99.9935 22.8875 105.709C22.885 105.939 22.8875 106.169 22.8875 106.462C23.2427 106.481 23.5615 106.496 23.9168 106.515C24.1164 107.379 24.2867 108.232 24.5155 109.067C24.844 110.276 24.9365 111.496 24.917 112.743C24.8854 114.777 24.9073 116.809 24.9073 118.843C24.9073 119.052 24.9073 119.257 24.9073 119.49C25.1944 119.49 25.4037 119.49 25.7006 119.49C25.7031 117.71 25.7006 115.935 25.7031 114.162C25.7031 112.399 25.7031 110.637 25.7031 108.876C25.7031 107.094 25.7031 105.311 25.7031 103.532C25.7031 101.749 25.7031 99.9669 25.7031 98.187C25.7031 96.4241 25.7031 94.6611 25.7031 92.9006C25.7031 91.1232 25.7031 89.3481 25.7031 87.5053C27.2508 87.5053 28.7425 87.5053 30.2635 87.5053C30.2952 87.142 30.3219 86.8393 30.3487 86.5245C30.5385 86.4882 30.7064 86.4543 30.9254 86.4131C30.9254 85.6261 30.9254 84.8391 30.9254 83.9818C31.5679 83.9818 32.1592 83.9818 32.7798 83.9818C32.8114 83.6912 32.8333 83.4684 32.865 83.173C33.2397 83.1657 33.6194 83.1536 34.0014 83.1512C34.3884 83.1463 34.7753 83.1512 35.2012 83.1512C35.2352 83.4248 35.2644 83.6646 35.2985 83.9479C35.8509 83.9479 36.3912 83.9479 36.9996 83.9479C37.0531 84.7761 37.002 85.5631 37.0336 86.3816C37.1918 86.4373 37.3476 86.4906 37.5228 86.5511C37.5422 86.8417 37.5593 87.1275 37.5836 87.4931C37.8002 87.4931 38.0095 87.4931 38.2163 87.4931C39.3844 87.4931 40.5525 87.5004 41.7206 87.4883C41.9932 87.4859 42.1903 87.5585 42.385 87.7571C43.3779 88.7669 44.3805 89.7695 45.4001 90.7551C45.6751 91.019 45.7773 91.2902 45.7773 91.668C45.7676 98.853 45.77 106.038 45.77 113.223C45.77 113.45 45.77 113.678 45.77 113.932C46.2154 113.954 46.595 113.971 47.0355 113.993C47.0355 114.971 47.0355 115.911 47.0355 116.913C47.308 116.913 47.5149 116.906 47.7242 116.916C47.9481 116.925 48.0722 116.819 48.1865 116.635C49.8852 113.874 52.2822 111.84 55.054 110.222C58.4756 108.227 62.177 107.06 66.112 106.609C71.018 106.045 75.778 106.621 80.3823 108.404C83.4437 109.588 86.2033 111.256 88.5565 113.562C89.4764 114.463 90.2795 115.458 90.9609 116.548C91.1215 116.804 91.2967 116.945 91.6131 116.921C91.9562 116.896 92.3042 116.916 92.7155 116.916C92.7155 115.916 92.7155 114.976 92.7155 113.981C93.2752 113.981 93.7741 113.981 94.3046 113.981C94.3313 113.78 94.3605 113.634 94.3678 113.487C94.5674 108.435 94.7645 103.386 94.9616 98.3347C95.1563 93.3607 95.3534 88.3891 95.5481 83.4151C95.7404 78.4993 95.9326 73.5858 96.1297 68.6699C96.3414 63.3496 96.5605 58.0269 96.7746 52.7066C96.7819 52.4984 96.7746 52.2901 96.7746 52.0068C96.2198 52.0068 95.7014 52.0068 95.1831 52.0068C94.8911 52.0068 94.599 52.0141 94.307 52.0044C93.6597 51.9874 93.2557 51.7041 93.1121 51.1786C92.9491 50.5829 93.1511 50.0647 93.6767 49.7281C93.7254 49.6966 93.7765 49.6699 93.8763 49.6142C93.3117 48.7449 93.3409 47.7496 93.2922 46.7737C93.2435 45.8317 93.5039 45.558 94.4433 45.5047C94.5017 45.5023 94.5577 45.4854 94.6964 45.4612C94.6964 45.1512 94.6915 44.8267 94.6964 44.5046C94.7134 43.7128 95.0857 43.3422 95.8815 43.3132C96.0519 43.3059 96.2222 43.2938 96.4412 43.2817C96.4412 42.2525 96.4412 41.2524 96.4412 40.2305C96.6262 40.182 96.7673 40.1457 96.9547 40.0949C96.9644 39.8866 96.9815 39.6783 96.9815 39.4725C96.9839 35.3679 96.9815 31.2608 96.9863 27.1562C96.9863 26.7905 96.9401 26.529 96.5799 26.2892C95.8328 25.788 95.8572 24.9961 96.5848 24.4657C96.8014 24.3083 97.0545 24.1969 97.3465 24.0347C97.5874 16.0627 97.8283 8.0593 98.0693 0.0824968C98.3102 -0.0337407 98.4465 -0.00468134 98.4757 0.201156C98.5073 0.43121 98.517 0.663685 98.5243 0.89616C98.6119 3.60595 98.6971 6.31574 98.7847 9.02553C98.9429 13.9414 99.0986 18.8573 99.2593 23.7756C99.2617 23.87 99.2787 23.9669 99.286 24.0468C99.5562 24.2018 99.8263 24.3205 100.053 24.4948C100.744 25.0227 100.758 25.7976 100.036 26.282C99.6827 26.5193 99.6146 26.7711 99.617 27.1392C99.6243 31.2632 99.6219 35.3897 99.6219 39.5137C99.6219 39.7026 99.6219 39.8939 99.6219 40.0997C99.8165 40.1409 99.9626 40.1724 100.174 40.2159C100.174 41.2282 100.174 42.2477 100.174 43.289C100.41 43.3011 100.581 43.3083 100.751 43.3156C101.501 43.3447 101.892 43.7224 101.926 44.4707C101.941 44.7952 101.929 45.1197 101.929 45.5144C102.291 45.5144 102.598 45.5048 102.902 45.5169C103.443 45.5411 103.825 45.8535 103.817 46.3717C103.805 47.1442 103.739 47.9167 103.637 48.6843C103.596 48.9967 103.399 49.2897 103.255 49.6288C103.722 49.8346 104.022 50.1785 104.044 50.7209C104.073 51.4886 103.645 51.9826 102.868 52.0044C102.187 52.0237 101.505 52.0092 100.824 52.0092C100.634 52.0092 100.442 52.0092 100.262 52.0092C100.138 52.5686 102.593 117.7 102.8 119.495C103.338 119.555 103.885 119.512 104.487 119.519C104.487 114.329 104.487 109.203 104.487 104.001C104.759 103.994 104.983 103.982 105.207 103.982C111.356 103.982 117.506 103.982 123.658 103.982C126.753 103.982 129.846 103.989 132.942 103.972C133.336 103.97 133.579 104.088 133.803 104.413C134.441 105.34 135.103 106.249 135.777 107.149C135.986 107.43 136.069 107.711 136.067 108.06C136.057 111.16 136.059 114.257 136.059 117.357C136.059 117.565 136.059 117.771 136.059 118.006C136.463 118.006 136.801 118.006 137.203 118.006C137.203 110.583 137.203 103.195 137.203 95.7799C137.437 95.7654 137.609 95.7484 137.78 95.7484C139.785 95.746 141.79 95.7581 143.793 95.7363C144.197 95.7315 144.423 95.8768 144.645 96.194C146.163 98.3735 147.699 100.543 149.232 102.713C149.349 102.878 149.471 103.038 149.59 103.2C149.631 103.183 149.673 103.166 149.714 103.151C149.714 96.5621 149.714 89.9729 149.714 83.2965C150.719 83.2941 151.663 83.2892 152.607 83.2868C153.559 83.2844 154.51 83.2868 155.535 83.2868C155.535 82.8606 155.535 82.4659 155.535 82.0397C155.824 82.0082 156.051 81.9816 156.35 81.9476C156.387 80.9378 156.348 79.9183 156.372 78.848C157.156 78.7366 157.932 78.8577 158.735 78.7705C158.757 78.4581 158.776 78.1723 158.801 77.8091C159.3 77.8043 159.796 77.7994 160.292 77.797C160.777 77.7946 161.263 77.797 161.804 77.797C161.823 78.1312 161.84 78.429 161.862 78.7995C162.599 78.7995 163.31 78.7995 164.079 78.7995C164.079 79.8869 164.079 80.9064 164.079 81.9428C164.32 81.9767 164.505 82.0033 164.734 82.0372C164.734 82.4368 164.734 82.817 164.734 83.282C166.698 83.2989 168.618 83.282 170.64 83.2916C171.75 84.3935 172.903 85.5389 174.108 86.7352C174.139 86.0935 174.117 85.4687 174.122 84.8439C174.127 84.224 174.122 83.604 174.122 82.9841C174.122 82.3448 174.122 81.7055 174.122 81.0662C174.122 80.4463 174.122 79.8263 174.122 79.2064C174.122 78.5671 174.122 77.9278 174.122 77.2885C174.122 76.6685 174.122 76.0486 174.122 75.4287C174.122 74.7894 174.122 74.15 174.122 73.5107C174.122 72.8908 174.122 72.2709 174.122 71.6509C174.122 71.0165 174.122 70.382 174.122 69.7088C176.31 69.7088 178.442 69.7088 180.649 69.7088C181.046 70.4498 181.467 71.232 181.876 72.019C181.927 72.1159 181.919 72.2442 181.924 72.358C181.932 72.5324 181.927 72.7068 181.927 72.8811C181.927 88.1615 181.927 103.442 181.927 118.722C181.927 118.969 181.927 119.214 181.927 119.49C182.377 119.49 182.759 119.49 183.212 119.49C183.272 117.989 183.231 116.487 183.238 114.986C183.246 113.455 183.241 111.925 183.241 110.397C183.241 108.886 183.241 107.375 183.241 105.866C183.241 104.357 183.241 102.844 183.241 101.335C183.241 99.824 183.241 98.3129 183.241 96.8043C183.241 95.2738 183.241 93.7433 183.241 92.2153C183.241 90.7066 183.241 89.198 183.241 87.6191C184.221 87.6191 185.163 87.6191 186.173 87.6191C186.173 85.3331 186.173 83.1173 186.173 80.8676C187.188 80.8676 188.132 80.8676 189.125 80.8676C189.171 80.996 189.23 81.134 189.276 81.2769C189.736 82.7153 190.206 84.1489 190.646 85.5946C190.741 85.9021 190.773 86.2412 190.773 86.5632C190.751 92.2758 190.719 97.9884 190.69 103.703C190.69 103.931 190.69 104.161 190.69 104.42C191.048 104.44 191.352 104.459 191.688 104.478C191.746 104.687 191.809 104.885 191.858 105.086C192.04 105.878 192.206 106.675 192.403 107.462C192.622 108.331 192.715 109.203 192.712 110.101C192.695 116.608 192.702 123.115 192.702 129.624C192.702 129.852 192.702 130.08 192.702 130.346C194.177 130.346 195.591 130.346 197.005 130.346C197.005 131.237 197.005 132.128 197.005 133.02C131.333 133 65.6667 133 0 133Z" fill="url(#paint0_linear_533_192)"/>
<defs>
<linearGradient id="paint0_linear_533_192" x1="98.5024" y1="0.0146484" x2="98.5024" y2="133.02" gradientUnits="userSpaceOnUse">
<stop stop-color="#E45D25"/>
<stop offset="1" stop-color="#F58E1E"/>
</linearGradient>
</defs>
</svg>
