<svg width="21" height="16" viewBox="0 0 21 16" fill="none" xmlns="http://www.w3.org/2000/svg">
<path fill-rule="evenodd" clip-rule="evenodd" d="M6.85714 1.14286C6.85714 0.511675 7.36882 0 8 0H19.4286C20.0598 0 20.5714 0.511675 20.5714 1.14286C20.5714 1.77404 20.0598 2.28571 19.4286 2.28571H8C7.36882 2.28571 6.85714 1.77404 6.85714 1.14286ZM0 8C0 7.36882 0.511675 6.85714 1.14286 6.85714H19.4286C20.0598 6.85714 20.5714 7.36882 20.5714 8C20.5714 8.63118 20.0598 9.14286 19.4286 9.14286H1.14286C0.511675 9.14286 0 8.63118 0 8ZM0 14.8571C0 14.226 0.511675 13.7143 1.14286 13.7143H12.5714C13.2026 13.7143 13.7143 14.226 13.7143 14.8571C13.7143 15.4883 13.2026 16 12.5714 16H1.14286C0.511675 16 0 15.4883 0 14.8571Z" fill="#E45D25"/>
</svg>
