<svg width="272" height="113" viewBox="0 0 272 113" fill="none" xmlns="http://www.w3.org/2000/svg">
<path d="M271.919 112.436C271.939 106.187 271.936 99.9334 271.936 93.6836C271.936 93.6299 271.936 93.5762 271.936 93.5226C271.324 93.5226 270.709 93.5192 270.097 93.5226C269.889 93.5226 269.66 93.4756 269.532 93.7138C269.526 94.0258 269.519 94.3378 269.509 94.6497C269.109 94.6833 268.813 94.5994 268.873 94.0996C268.93 93.6333 268.692 93.4924 268.261 93.5159C267.834 93.5393 267.407 93.5091 266.984 93.5226C266.641 93.5326 266.264 93.4152 265.965 93.5997C265.673 93.7775 265.871 94.1465 265.79 94.4183C265.757 94.5323 265.686 94.6061 265.572 94.6061C265.454 94.6061 265.387 94.5357 265.353 94.4183C265.286 94.1801 265.431 93.8815 265.162 93.697C265.02 93.4823 264.798 93.5259 264.593 93.5226C264.035 93.5192 263.474 93.5326 262.916 93.5192C262.388 93.5058 262.163 93.5997 262.284 94.2203C262.341 94.3612 262.341 94.5055 262.29 94.6497C261.83 94.7068 261.561 94.5625 261.621 94.0392C261.675 93.5897 261.399 93.5091 261.023 93.5159C260.404 93.5293 259.786 93.536 259.17 93.5125C258.73 93.4957 258.508 93.6433 258.555 94.1063C258.602 94.539 258.374 94.643 257.977 94.6531C257.657 94.6632 257.436 94.6699 257.284 94.643C257.227 94.6263 257.177 94.6095 257.123 94.5894C256.945 94.4854 256.945 94.2405 256.945 93.6702C256.945 86.9708 256.945 80.2681 256.945 73.5688C256.945 73.3809 256.945 73.193 256.945 73.0052C256.941 71.8679 257.029 71.9451 255.919 71.9417C255.193 71.9417 254.47 71.9417 253.744 71.9417C253.599 71.5794 253.845 71.1534 253.556 70.8145C253.263 70.5227 252.893 70.6669 252.561 70.6602C251.626 70.6367 251.623 70.6502 251.623 69.7477C251.619 67.8993 251.623 66.0509 251.623 64.2024C252.039 64.1521 252.456 64.1588 252.873 64.1991C253.327 63.924 253.381 63.3805 253.018 62.7733C252.981 62.7867 252.947 62.7834 252.914 62.7599C252.48 62.4345 251.982 62.6693 251.522 62.6022C251.219 62.5586 250.869 62.7196 250.631 62.3976C250.631 62.3506 250.644 62.3104 250.674 62.2768C250.755 62.2298 250.796 62.1594 250.802 62.0655C250.792 62.0252 250.799 61.9883 250.822 61.9581C250.964 61.8776 250.977 61.7434 250.964 61.6025C250.954 61.5589 250.96 61.5153 250.984 61.475C251.223 61.0456 251.223 60.6196 250.984 60.1902C250.96 60.1533 250.954 60.113 250.964 60.0694C250.977 59.9218 250.964 59.7876 250.812 59.7105C250.812 59.5729 250.785 59.4521 250.641 59.3884C250.601 59.3347 250.557 59.2811 250.516 59.2274C250.486 59.1972 250.473 59.1603 250.476 59.1167C250.466 59.016 250.416 58.9456 250.321 58.9053C250.278 58.8449 250.221 58.7946 250.174 58.7376L250.17 58.7342C250.113 58.6873 250.066 58.6336 250.022 58.5732L250.012 58.5598C249.965 58.5095 249.918 58.4592 249.871 58.4088L249.858 58.3921C249.824 58.1069 249.666 57.9526 249.38 57.9258L249.367 57.9157C249.306 57.8754 249.256 57.8285 249.212 57.7681L249.205 57.7614C249.148 57.7144 249.094 57.6641 249.044 57.6104C248.987 57.5601 248.936 57.5031 248.876 57.4594C248.829 57.3991 248.778 57.342 248.711 57.3051C248.661 57.1709 248.546 57.1374 248.415 57.124L248.402 57.1139C248.348 57.0669 248.291 57.0166 248.237 56.9697C248.18 56.9227 248.133 56.859 248.069 56.8187C248.018 56.6879 247.904 56.651 247.776 56.6375L247.756 56.6241C247.692 56.5872 247.639 56.5403 247.592 56.4866C247.534 56.4363 247.484 56.3792 247.42 56.3356C247.376 56.2719 247.323 56.2182 247.255 56.178C247.228 56.0941 247.175 56.0404 247.091 56.0169C247.067 55.9331 247.01 55.8794 246.926 55.8559C246.862 55.6278 246.701 55.5338 246.475 55.5137L246.462 55.5037C246.401 55.4634 246.351 55.4164 246.314 55.356L246.3 55.3426C246.24 55.3057 246.193 55.2554 246.156 55.195L246.142 55.1816C246.122 54.9602 246.021 54.7958 245.8 54.7321C245.759 54.665 245.705 54.6113 245.642 54.5643C245.598 54.5039 245.541 54.4536 245.497 54.3932L245.494 54.3865C245.487 54.2557 245.453 54.1383 245.322 54.0779C245.325 53.9404 245.295 53.8196 245.154 53.7559C245.11 53.7022 245.067 53.6451 245.023 53.5915C244.996 53.5613 244.986 53.5244 244.993 53.4841C244.966 53.3801 244.902 53.2828 244.798 53.3399C244.734 53.3734 244.717 53.5009 244.68 53.5881C244.552 53.6552 244.522 53.7693 244.515 53.9001L244.512 53.9102C244.472 53.9706 244.411 54.0209 244.374 54.0846C244.236 54.145 244.203 54.2624 244.203 54.4C244.149 54.4536 244.092 54.504 244.051 54.5677C243.967 54.5945 243.913 54.6516 243.89 54.7354C243.755 54.7857 243.722 54.8965 243.708 55.0239L243.698 55.0373C243.658 55.0977 243.607 55.1481 243.55 55.1917L243.544 55.1984C243.5 55.2554 243.449 55.3091 243.389 55.3527L243.382 55.3594C243.339 55.4164 243.285 55.4668 243.228 55.5104L243.217 55.5204C243.177 55.5808 243.127 55.6278 243.066 55.668L243.056 55.6781C243.016 55.7385 242.965 55.7854 242.905 55.8257L242.891 55.8358C242.764 55.8492 242.649 55.8827 242.602 56.0169C242.518 56.0404 242.464 56.0941 242.437 56.1746C242.353 56.1981 242.3 56.2518 242.273 56.3356C242.209 56.3792 242.158 56.4329 242.108 56.4899C242.054 56.5403 241.997 56.5872 241.94 56.6342L241.93 56.6409C241.799 56.651 241.681 56.6845 241.631 56.8221C241.627 56.8254 241.62 56.8254 241.617 56.8288C241.547 56.8556 241.493 56.8992 241.466 56.9764C241.405 57.02 241.358 57.077 241.298 57.1206L241.291 57.124C241.16 57.134 241.042 57.1642 240.992 57.3018C240.908 57.3253 240.851 57.3789 240.824 57.4594C240.76 57.4997 240.706 57.5567 240.656 57.6138C240.598 57.6641 240.548 57.7178 240.491 57.7681L240.487 57.7714C240.437 57.8285 240.383 57.8754 240.326 57.9224L240.316 57.9291C240.272 57.9861 240.222 58.0365 240.161 58.0767L240.148 58.0901C240.097 58.1371 240.05 58.1841 240 58.2344L239.983 58.2512C239.936 58.3015 239.889 58.3484 239.839 58.3988L239.825 58.4122C239.785 58.4726 239.738 58.5262 239.677 58.5699L239.671 58.5766C239.623 58.6336 239.573 58.6873 239.519 58.7409C239.465 58.7946 239.412 58.8449 239.368 58.9087C239.233 58.9624 239.196 59.0798 239.176 59.2106C239.133 59.271 239.092 59.3314 239.049 59.3918C238.904 59.4555 238.874 59.5763 238.877 59.7138C238.722 59.791 238.712 59.9285 238.726 60.0761C238.739 60.1164 238.732 60.1566 238.709 60.1902C238.45 60.5592 238.467 60.9349 238.696 61.3106C238.716 61.361 238.722 61.4113 238.716 61.465C238.716 61.6461 238.679 61.8407 238.877 61.9581C238.874 62.0923 238.904 62.2097 239.018 62.2936L239.032 62.2835C239.028 62.2869 239.022 62.2902 239.018 62.2936C238.998 62.5922 238.786 62.6056 238.558 62.6056C238.023 62.6056 237.489 62.5989 236.954 62.6089C236.722 62.6123 236.463 62.5385 236.292 62.78C236.295 62.78 236.295 62.78 236.298 62.78C236.043 63.3772 236.053 63.7294 236.349 64.2024C236.349 64.2024 236.349 64.2024 236.349 64.1991C236.349 64.1991 236.349 64.1991 236.349 64.2024C236.813 64.1722 237.277 64.1253 237.737 64.2326C237.737 66.1549 237.741 68.0737 237.734 69.996C237.731 70.6166 237.717 70.6166 237.119 70.6535C236.887 70.6669 236.631 70.5864 236.446 70.8078C236.302 70.9185 236.298 71.0762 236.285 71.2406C236.228 71.9283 236.224 71.935 235.545 71.9384C234.446 71.9451 233.343 71.9384 232.244 71.9417C231.238 71.9417 231.289 71.9954 231.289 70.9722C231.289 65.1283 231.289 59.2878 231.289 53.4439C231.289 53.2828 231.296 53.1218 231.289 52.9608C231.272 52.632 231.4 52.4442 231.75 52.4643C232.136 52.4878 232.281 52.2966 232.257 51.9309C232.244 51.7162 232.244 51.5015 232.257 51.2868C232.274 50.9111 232.042 50.8406 231.739 50.8473C231.756 50.7936 231.77 50.7433 231.786 50.6896C231.82 50.6393 231.854 50.589 231.891 50.5387C231.901 50.5286 231.911 50.5152 231.921 50.4951L231.924 50.4917C231.918 50.4481 231.924 50.4079 231.945 50.3676C232.176 50.0522 232.173 49.7336 231.955 49.4115C231.934 49.3645 231.924 49.3176 231.928 49.2673C231.884 49.2069 231.84 49.1465 231.797 49.0861C231.773 49.0458 231.76 49.0022 231.763 48.9553C231.746 48.8613 231.696 48.7942 231.605 48.7573C231.558 48.7003 231.501 48.65 231.454 48.593L231.45 48.5896C231.393 48.5426 231.343 48.489 231.299 48.4319L231.292 48.4252C231.235 48.3816 231.185 48.3313 231.141 48.2709L231.131 48.2608C231.074 48.2172 231.02 48.1669 230.976 48.1099L230.97 48.1032C230.912 48.0562 230.859 48.0059 230.808 47.9488L230.805 47.9455C230.748 47.8952 230.697 47.8415 230.647 47.7878L230.643 47.7845C230.586 47.7341 230.536 47.6805 230.485 47.6268L230.482 47.6234C230.425 47.5765 230.374 47.5228 230.331 47.4624L230.324 47.4524C230.314 47.3215 230.28 47.2075 230.146 47.1538C230.105 47.0867 230.048 47.0364 229.995 46.986C229.995 46.8485 229.964 46.7277 229.823 46.664V46.6674C229.568 46.4023 229.554 46.6338 229.517 46.825C229.386 46.8854 229.356 47.0028 229.346 47.1337L229.342 47.1404C229.295 47.1974 229.245 47.2511 229.198 47.3081C229.137 47.3551 229.083 47.4087 229.04 47.4725C228.976 47.5161 228.922 47.5664 228.882 47.6335C228.798 47.6603 228.744 47.714 228.72 47.7945C228.64 47.818 228.586 47.8717 228.559 47.9556C228.475 47.9824 228.421 48.0361 228.394 48.1199C228.34 48.1736 228.287 48.2273 228.233 48.281C228.182 48.3313 228.129 48.385 228.078 48.4353C228.011 48.4789 227.957 48.5326 227.917 48.5997C227.782 48.6533 227.749 48.7674 227.739 48.8982L227.732 48.9083C227.685 48.9653 227.641 49.0224 227.594 49.0794C227.443 49.1498 227.426 49.2807 227.433 49.4249C227.439 49.4719 227.433 49.5155 227.416 49.5591C227.217 49.7168 227.214 49.8745 227.412 50.0388C227.429 50.0892 227.433 50.1395 227.429 50.1898C227.426 50.324 227.446 50.4448 227.57 50.5219C227.594 50.5622 227.607 50.6058 227.604 50.6527C227.493 50.7735 227.386 50.8943 227.275 51.0151C227.275 51.0151 227.275 51.0151 227.275 51.0117L227.265 51.0251H227.268C227.009 51.4445 227.006 51.8604 227.268 52.2798C227.265 52.2798 227.265 52.2798 227.261 52.2798C227.429 52.5314 227.692 52.4576 227.92 52.4542C228.266 52.4542 228.408 52.6119 228.387 52.944C228.381 53.0514 228.387 53.1587 228.387 53.2661C228.387 56.1243 228.387 58.9791 228.387 61.8373C228.387 61.9984 228.387 62.1594 228.374 62.3171C228.361 62.4647 228.287 62.572 228.122 62.5586C227.95 62.5452 227.93 62.4043 227.903 62.2735C228.135 62.0588 228.139 61.8474 227.9 61.6361C227.9 61.5019 227.873 61.3778 227.735 61.314C227.685 61.2603 227.641 61.2067 227.597 61.1463L227.587 61.1329C227.56 60.8477 227.402 60.69 227.117 60.6598L227.1 60.6464C227.049 60.5995 227.002 60.5525 226.952 60.5022L226.942 60.4888C226.922 60.264 226.821 60.103 226.595 60.0392C226.562 59.9688 226.501 59.9218 226.454 59.8648L226.451 59.8614C226.437 59.7641 226.427 59.64 226.323 59.6199C226.148 59.5897 226.148 59.744 226.125 59.8614L226.121 59.8648C226.074 59.9252 226.014 59.9721 225.977 60.0392C225.752 60.103 225.654 60.264 225.631 60.4888L225.617 60.5055C225.57 60.5525 225.52 60.5995 225.473 60.6464L225.456 60.6598C225.328 60.6766 225.217 60.7135 225.173 60.8477C225.086 60.8712 225.032 60.9249 225.012 61.0087C224.871 61.0591 224.837 61.1765 224.834 61.314C224.746 61.3576 224.696 61.4281 224.686 61.5254C224.699 61.5656 224.693 61.6025 224.666 61.6361C224.44 61.8508 224.44 62.0655 224.669 62.2768C224.696 62.3137 224.703 62.3506 224.696 62.3942C224.346 62.77 223.899 62.5318 223.496 62.5888C223.516 62.5351 223.536 62.4848 223.556 62.4311C223.694 62.3439 223.701 62.2131 223.687 62.0722C223.687 61.9883 223.691 61.9078 223.691 61.8239C223.701 61.6797 223.687 61.5488 223.546 61.4683V61.465C223.539 61.3308 223.509 61.2134 223.371 61.1563C223.331 61.0892 223.274 61.0389 223.213 60.992C223.17 60.9316 223.116 60.8813 223.059 60.8376C223.012 60.7739 222.954 60.7169 222.891 60.6733L222.897 60.68C222.84 60.6229 222.783 60.5693 222.726 60.5122C222.675 60.4619 222.625 60.4082 222.571 60.3579C222.527 60.2908 222.47 60.2405 222.41 60.1868C222.363 60.1365 222.316 60.0828 222.272 60.0292C222.242 59.999 222.228 59.9654 222.235 59.9218C222.225 59.8212 222.174 59.7474 222.08 59.7105C222.033 59.5998 221.986 59.6031 221.942 59.7105C221.808 59.7675 221.774 59.8815 221.764 60.0124L221.758 60.0191C221.71 60.0761 221.663 60.1332 221.613 60.1902C221.552 60.2371 221.499 60.2875 221.455 60.3546C221.371 60.3814 221.317 60.4351 221.29 60.5156C221.209 60.5424 221.152 60.5961 221.125 60.6766C221.058 60.7202 221.004 60.7739 220.961 60.8376C220.91 60.888 220.86 60.9416 220.806 60.992C220.722 61.0188 220.668 61.0758 220.641 61.1597C220.503 61.2167 220.473 61.3341 220.47 61.4683C220.228 61.787 220.231 62.1057 220.46 62.4311C220.493 62.4747 220.51 62.5251 220.517 62.5787C220.113 62.5418 219.673 62.7666 219.32 62.4009C219.313 62.354 219.323 62.3104 219.35 62.2735C219.569 62.0588 219.569 61.8441 219.344 61.6327C219.317 61.6025 219.31 61.569 219.323 61.5287C219.317 61.4281 219.27 61.3543 219.179 61.3106C219.044 60.7705 218.627 60.482 218.197 60.207C218.177 60.1164 218.123 60.0593 218.036 60.0325C217.992 59.9755 217.948 59.9218 217.901 59.8648C217.874 59.8379 217.864 59.8044 217.874 59.7675C217.851 59.6635 217.797 59.5696 217.679 59.6098C217.582 59.6467 217.575 59.7641 217.568 59.8648C217.515 59.9184 217.454 59.9688 217.42 60.0392C217.286 60.0862 217.249 60.2002 217.236 60.3277L217.225 60.3411C217.188 60.4015 217.138 60.4519 217.078 60.4921L217.064 60.5055C217.024 60.5659 216.973 60.6129 216.913 60.6531L216.899 60.6665C216.849 60.7135 216.802 60.7638 216.751 60.8108L216.735 60.8276C216.688 60.8745 216.637 60.9249 216.59 60.9718L216.573 60.9886C216.536 61.049 216.489 61.0993 216.429 61.1396L216.419 61.1496C216.372 61.2067 216.324 61.2603 216.281 61.3174C216.143 61.3845 216.113 61.5052 216.116 61.6394C215.904 61.787 215.904 61.9447 216.096 62.1124C216.119 62.1594 216.126 62.2097 216.116 62.2634C216.092 62.3942 216.052 62.5586 215.918 62.562C215.494 62.572 215.05 62.7465 214.657 62.4345C214.896 62.1124 214.909 61.7937 214.65 61.4784C214.654 61.3408 214.63 61.2167 214.482 61.163C214.458 61.0792 214.405 61.0255 214.324 60.9987C214.297 60.9182 214.243 60.8645 214.163 60.8376C214.136 60.7571 214.082 60.7034 214.001 60.6766C213.974 60.5961 213.921 60.5424 213.84 60.5156C213.816 60.4317 213.763 60.378 213.678 60.3546C213.655 60.2707 213.601 60.217 213.517 60.1902C213.477 60.1264 213.42 60.0761 213.369 60.0224C213.366 59.8883 213.332 59.7675 213.194 59.7105C213.151 59.6031 213.107 59.5998 213.057 59.7105C212.972 59.7373 212.922 59.7943 212.895 59.8748C212.761 59.9319 212.727 60.0459 212.72 60.1768L212.717 60.1801C212.667 60.2371 212.616 60.2908 212.566 60.3479C212.512 60.3982 212.455 60.4518 212.408 60.5089C212.35 60.5592 212.297 60.6129 212.243 60.6699L212.246 60.6665C212.189 60.7169 212.135 60.7739 212.082 60.8276C212.028 60.8813 211.974 60.9349 211.92 60.9886C211.87 61.0423 211.813 61.0926 211.765 61.153C211.675 61.1932 211.621 61.2603 211.611 61.361C211.618 61.4046 211.604 61.4448 211.574 61.4784C211.493 61.5254 211.456 61.5958 211.449 61.6864C211.446 61.8239 211.443 61.9648 211.439 62.1024C211.449 62.4177 211.349 62.619 210.982 62.5989C210.649 62.5821 210.313 62.5854 209.977 62.5787C209.967 62.5687 209.953 62.562 209.943 62.5519C209.953 62.5083 209.967 62.468 209.997 62.4311C210.182 62.3003 210.142 62.1091 210.135 61.9246C210.135 61.9246 210.135 61.9279 210.132 61.9279C210.132 61.9279 210.132 61.9246 210.135 61.9246C210.115 61.8944 210.111 61.8642 210.132 61.8306C210.145 61.6864 210.132 61.5522 209.987 61.4683C209.984 61.3341 209.95 61.2134 209.812 61.1563C209.772 61.0892 209.715 61.0389 209.651 60.992C209.607 60.9316 209.553 60.8812 209.496 60.8343C209.452 60.7739 209.399 60.7202 209.335 60.6766C209.291 60.6129 209.237 60.5558 209.17 60.5122C209.126 60.4485 209.072 60.3948 209.009 60.3512C208.965 60.2875 208.911 60.2338 208.851 60.1835C208.8 60.1298 208.753 60.0728 208.713 60.0157L208.706 60.0023C208.693 59.8748 208.659 59.7608 208.524 59.7037C208.477 59.593 208.43 59.593 208.387 59.7037C208.252 59.7574 208.219 59.8748 208.205 60.0023L208.198 60.0157C208.151 60.0728 208.104 60.1298 208.057 60.1835C208 60.2338 207.943 60.2841 207.899 60.3479C207.835 60.3915 207.781 60.4451 207.738 60.5089C207.671 60.5525 207.617 60.6062 207.573 60.6733C207.509 60.7169 207.459 60.7705 207.412 60.8309C207.351 60.8745 207.301 60.9282 207.254 60.9886C207.19 61.0356 207.136 61.0892 207.092 61.153C206.954 61.21 206.921 61.3274 206.917 61.4616L206.914 61.465C206.773 61.5488 206.759 61.683 206.773 61.8273C206.79 61.8575 206.79 61.891 206.769 61.9179C206.763 62.1024 206.722 62.2969 206.907 62.4278C206.934 62.4647 206.951 62.5049 206.961 62.5519C206.948 62.5586 206.938 62.5653 206.924 62.572C206.531 62.5553 206.107 62.7498 205.764 62.3909C205.758 62.3473 205.768 62.3036 205.794 62.2667C206.016 62.052 206.02 61.8373 205.788 61.626C205.784 61.4918 205.758 61.371 205.626 61.3039C205.455 60.6967 204.954 60.378 204.49 60.0292C204.453 59.9621 204.393 59.9151 204.349 59.8514L204.345 59.8413C204.332 59.744 204.319 59.6199 204.211 59.6065C204.036 59.5796 204.04 59.7373 204.019 59.8547C203.969 59.9117 203.908 59.9587 203.875 60.0292C203.74 60.0761 203.703 60.1902 203.69 60.3177L203.676 60.3344C203.629 60.3848 203.582 60.4317 203.532 60.482L203.518 60.4955C203.481 60.5558 203.431 60.6028 203.37 60.6397L203.357 60.6531C203.071 60.6833 202.913 60.841 202.886 61.1261L202.876 61.1396C202.829 61.1966 202.785 61.2503 202.738 61.3073C202.601 61.3744 202.574 61.4952 202.574 61.6294C202.338 61.8407 202.338 62.0554 202.574 62.2667C202.496 62.7129 202.15 62.5922 201.878 62.572C201.578 62.5519 201.615 62.2869 201.592 62.0822C201.592 61.9917 201.592 61.8977 201.595 61.8072C201.602 61.673 201.582 61.5455 201.451 61.4683C201.424 61.4381 201.414 61.4046 201.424 61.3643C201.414 61.2603 201.363 61.1899 201.269 61.1496C201.225 61.0859 201.172 61.0356 201.111 60.9852L201.115 60.9886C201.064 60.9316 201.01 60.8779 200.953 60.8276C200.903 60.7672 200.849 60.7135 200.785 60.6632L200.792 60.6699C200.735 60.6162 200.681 60.5592 200.624 60.5055C200.57 60.4518 200.519 60.3982 200.466 60.3479C200.419 60.2875 200.361 60.2371 200.311 60.1801C200.261 60.1332 200.217 60.0828 200.177 60.0258C200.143 59.9923 200.129 59.9554 200.136 59.9084C200.123 59.8111 200.072 59.7407 199.978 59.7037C199.931 59.593 199.884 59.5964 199.84 59.7037C199.702 59.7608 199.669 59.8782 199.662 60.009L199.659 60.0157C199.615 60.0761 199.555 60.1231 199.514 60.1868C199.45 60.2304 199.397 60.2841 199.356 60.3479C199.272 60.3747 199.218 60.4284 199.191 60.5089C199.111 60.5357 199.057 60.5894 199.03 60.6699C198.946 60.6967 198.892 60.7504 198.865 60.8343C198.815 60.8846 198.764 60.9349 198.711 60.9886C198.627 61.0154 198.573 61.0725 198.546 61.1563C198.408 61.2134 198.378 61.3341 198.374 61.4683C198.129 61.787 198.136 62.1057 198.368 62.4278C198.398 62.4647 198.415 62.5083 198.422 62.5519C198.418 62.5586 198.411 62.5653 198.408 62.572C197.773 62.6861 197.726 62.4378 197.726 61.9346C197.732 58.9925 197.729 56.0505 197.729 53.1084C197.729 53.0547 197.732 53.001 197.729 52.9474C197.712 52.622 197.837 52.4341 198.19 52.4509C198.324 52.4576 198.458 52.4442 198.593 52.4475C198.899 52.4509 199.007 52.2932 199.023 52.0013C199.054 51.4646 199.03 50.9446 198.687 50.4951C198.684 50.4448 198.694 50.3978 198.714 50.3542C198.896 50.2233 198.855 50.0321 198.848 49.851C198.848 49.851 198.848 49.851 198.848 49.8543C198.848 49.8543 198.848 49.8543 198.848 49.851C198.832 49.8141 198.832 49.7805 198.848 49.7436C198.855 49.5558 198.899 49.3578 198.694 49.2371C198.694 49.0995 198.667 48.9787 198.526 48.9184C198.485 48.8546 198.428 48.8043 198.374 48.7506C198.321 48.7003 198.27 48.6433 198.227 48.5862L198.216 48.5762C198.159 48.5359 198.109 48.4856 198.068 48.4252L198.055 48.4118C197.995 48.3749 197.947 48.3246 197.907 48.2642L197.894 48.2508C197.833 48.2105 197.783 48.1636 197.742 48.1032L197.732 48.0931C197.672 48.0528 197.621 48.0025 197.578 47.9421L197.571 47.9354C197.514 47.8918 197.46 47.8415 197.416 47.7811L197.41 47.7744C197.352 47.7308 197.302 47.6805 197.258 47.6201L197.248 47.61C197.191 47.5698 197.144 47.5161 197.104 47.4557L197.093 47.4389C197.08 47.3115 197.043 47.1974 196.912 47.1437C196.872 47.08 196.814 47.033 196.764 46.9726V46.9693C196.761 46.8351 196.73 46.7143 196.593 46.6539V46.6573C196.327 46.3956 196.317 46.6271 196.29 46.8183C196.152 46.8787 196.122 46.9995 196.119 47.1303C196.068 47.1873 196.011 47.2377 195.967 47.298C195.903 47.3416 195.85 47.3953 195.809 47.4624C195.725 47.4893 195.671 47.5429 195.648 47.6268C195.564 47.6503 195.51 47.704 195.486 47.7878C195.402 47.8113 195.349 47.865 195.325 47.9488C195.241 47.9723 195.187 48.026 195.164 48.1099C195.083 48.1334 195.029 48.187 195.002 48.2709C194.922 48.2977 194.868 48.3514 194.841 48.4319C194.76 48.4588 194.706 48.5124 194.68 48.5963C194.545 48.6533 194.511 48.7674 194.505 48.9016L194.501 48.9049C194.448 48.9653 194.394 49.0257 194.353 49.0995C194.357 49.1465 194.347 49.1934 194.323 49.2337C194.276 49.2974 194.222 49.3545 194.195 49.4316C194.189 49.5256 194.182 49.6195 194.172 49.7101C194.152 49.7235 194.111 49.747 194.115 49.7537C194.121 49.7705 194.128 49.7839 194.138 49.8006C194.142 49.8241 194.148 49.8443 194.172 49.8677C194.179 49.9684 194.185 50.0657 194.192 50.1663C194.182 50.3039 194.202 50.4313 194.337 50.5118C194.36 50.5488 194.37 50.589 194.37 50.6326C194.273 50.7467 194.179 50.8607 194.081 50.9748C194.061 50.9882 194.044 51.0083 194.034 51.0318C194.034 51.0318 194.034 51.0318 194.034 51.0352C194.034 51.4377 194.034 51.837 194.034 52.2395C194.283 52.6152 194.666 52.3804 194.982 52.4475C194.989 52.6085 195.006 52.7662 195.006 52.9272C195.002 59.0462 194.999 65.1652 194.992 71.2876C194.992 71.4989 194.965 71.7136 194.949 71.9249C194.686 71.9249 194.421 71.9317 194.158 71.9249C193.594 71.9082 193.59 71.9048 193.543 71.3681C193.526 71.1668 193.58 70.9454 193.368 70.8078C193.291 70.6971 193.177 70.6435 193.042 70.6435C192.353 70.6435 191.664 70.6435 190.975 70.6435C190.84 70.6435 190.729 70.6971 190.648 70.8078C190.43 70.9454 190.46 71.1701 190.477 71.3714C190.521 71.8411 190.279 71.9652 189.882 71.9283C189.868 71.7807 189.845 71.6465 189.811 71.5257C189.821 71.2741 189.858 71.0158 189.667 70.7978C189.593 70.7139 189.509 70.6602 189.394 70.6468C188.54 70.5428 188.537 70.5428 188.537 69.6572C188.537 67.8356 188.537 66.0173 188.537 64.1957C188.954 64.142 189.371 64.1487 189.791 64.189C190.238 63.9106 190.295 63.3738 189.936 62.7632C189.899 62.7767 189.862 62.7733 189.828 62.7498C189.294 62.4144 188.702 62.676 188.14 62.5922C187.791 62.5385 187.401 62.7297 187.088 62.4311C187.219 62.3607 187.246 62.2433 187.249 62.1091C187.394 62.0319 187.407 61.8977 187.397 61.7568C187.387 61.7099 187.397 61.6629 187.424 61.6226C187.606 61.4985 187.565 61.3073 187.565 61.1329C187.562 60.8812 187.559 60.6297 187.555 60.3814C187.569 60.2439 187.562 60.1097 187.428 60.0258C187.401 59.9822 187.394 59.9386 187.397 59.8883C187.407 59.744 187.387 59.6132 187.239 59.5427C187.243 59.4052 187.219 59.2844 187.071 59.2274C187.034 59.1603 186.977 59.11 186.923 59.0563C186.92 58.9221 186.89 58.8013 186.748 58.7477C186.725 58.6638 186.671 58.6101 186.59 58.5833C186.567 58.4994 186.513 58.4457 186.429 58.4189C186.385 58.3518 186.332 58.2981 186.268 58.2545C186.214 58.2008 186.163 58.1505 186.11 58.0968C186.083 58.0163 186.029 57.9627 185.948 57.9392C185.921 57.8553 185.868 57.8016 185.784 57.7781C185.757 57.6976 185.703 57.644 185.619 57.6171C185.568 57.4829 185.454 57.4494 185.326 57.436L185.313 57.4259C185.252 57.3856 185.195 57.3387 185.145 57.285C185.091 57.2313 185.041 57.1743 184.977 57.134C184.95 57.0502 184.893 56.9965 184.809 56.973C184.755 56.8355 184.637 56.8053 184.506 56.7986L184.503 56.7952C184.445 56.7482 184.395 56.6912 184.331 56.6476C184.287 56.5839 184.234 56.5302 184.166 56.4899C184.14 56.4061 184.086 56.3524 183.998 56.3289C183.948 56.1914 183.834 56.1578 183.702 56.1478L183.696 56.141C183.639 56.0941 183.581 56.0438 183.531 55.9901C183.474 55.9364 183.423 55.8794 183.363 55.8324L183.366 55.8358C183.316 55.7787 183.265 55.7217 183.201 55.6781C183.154 55.6144 183.101 55.5573 183.033 55.5137C182.98 55.46 182.926 55.4064 182.872 55.3527C182.822 55.3024 182.771 55.2487 182.717 55.1984C182.674 55.1313 182.617 55.0776 182.553 55.0273C182.506 54.9669 182.452 54.9166 182.401 54.8629C182.348 54.8126 182.297 54.7556 182.25 54.6985L182.243 54.6918C182.233 54.561 182.2 54.4469 182.062 54.3932C182.025 54.3261 181.968 54.2758 181.91 54.2222C181.91 54.0846 181.88 53.9638 181.739 53.9035C181.695 53.8464 181.652 53.7928 181.608 53.7391C181.581 53.7055 181.571 53.6653 181.578 53.625C181.564 53.5277 181.514 53.4573 181.423 53.4204C181.376 53.3097 181.325 53.3097 181.278 53.4204C181.184 53.4606 181.134 53.5311 181.124 53.6317C181.134 53.672 181.124 53.7089 181.097 53.7391C181.053 53.7961 181.006 53.8531 180.959 53.9068C180.818 53.9672 180.788 54.088 180.788 54.2222C180.73 54.2725 180.673 54.3228 180.636 54.3899C180.498 54.4436 180.465 54.5576 180.455 54.6885L180.448 54.6952C180.398 54.7522 180.347 54.8059 180.297 54.8629C180.243 54.9166 180.189 54.9669 180.142 55.0273C180.078 55.0776 180.024 55.1313 179.977 55.195C179.924 55.2487 179.87 55.3024 179.816 55.356C179.766 55.4064 179.715 55.46 179.661 55.5104C179.594 55.554 179.54 55.611 179.493 55.6747C179.433 55.7184 179.379 55.7754 179.328 55.8324L179.332 55.8291C179.275 55.8794 179.221 55.9364 179.164 55.9867C179.113 56.0404 179.059 56.0941 178.999 56.141L178.992 56.1478C178.949 56.2048 178.895 56.2518 178.834 56.2853L178.814 56.2987C178.69 56.3155 178.575 56.3524 178.528 56.4832C178.461 56.5235 178.411 56.5772 178.364 56.6409C178.303 56.6845 178.253 56.7415 178.192 56.7885L178.189 56.7919C178.058 56.7986 177.94 56.8321 177.886 56.9697C177.802 56.9931 177.745 57.0468 177.718 57.1273C177.654 57.1676 177.604 57.2246 177.55 57.2783C177.499 57.332 177.446 57.3789 177.385 57.4192L177.372 57.4293C177.244 57.4427 177.13 57.4762 177.079 57.6104C176.995 57.6339 176.941 57.6876 176.914 57.7714C176.83 57.7983 176.777 57.852 176.75 57.9325C176.746 57.9358 176.74 57.9358 176.736 57.9425C176.666 57.9694 176.615 58.0197 176.592 58.0935C176.538 58.1438 176.488 58.1975 176.434 58.2478C176.37 58.2914 176.316 58.3451 176.272 58.4122C176.188 58.439 176.134 58.4927 176.111 58.5766C176.027 58.6034 175.976 58.6571 175.953 58.7409C175.815 58.7946 175.781 58.912 175.778 59.0462V59.0496C175.731 59.1066 175.671 59.1569 175.634 59.2207C175.492 59.2811 175.462 59.4018 175.465 59.536C175.331 59.6031 175.304 59.7239 175.307 59.8614C175.099 59.9822 175.146 60.1801 175.149 60.368C175.146 60.6229 175.146 60.8745 175.143 61.1295C175.143 61.3073 175.106 61.4952 175.284 61.6193C175.311 61.6629 175.321 61.7065 175.311 61.7568C175.301 61.8977 175.318 62.0286 175.459 62.1091C175.462 62.2399 175.489 62.3607 175.617 62.4311V62.4345C175.136 62.7532 174.595 62.5183 174.09 62.5922C173.798 62.6358 173.462 62.4747 173.216 62.7565L173.203 62.77C173.206 62.77 173.206 62.77 173.209 62.77C172.951 63.3671 172.964 63.716 173.26 64.1924C173.26 64.1924 173.26 64.1923 173.26 64.1957C173.724 64.1622 174.188 64.1286 174.648 64.2192C174.648 66.0106 174.648 67.802 174.648 69.5901C174.648 70.724 174.736 70.63 173.623 70.6535C173.263 70.6602 172.87 70.5093 172.547 70.8078C172.349 70.9622 172.376 71.1836 172.396 71.3848C172.443 71.8679 172.177 71.9719 171.774 71.935C171.629 71.5727 171.878 71.1467 171.586 70.8078C171.001 70.5831 170.063 70.5831 169.488 70.8112C169.252 71.093 169.36 71.4285 169.36 71.7404C169.35 79.0504 169.347 86.3603 169.34 93.6702C169.34 93.9922 169.323 94.3109 169.313 94.633C168.963 94.633 168.617 94.6363 168.267 94.633C167.642 94.6229 167.612 94.6229 167.568 93.9855C167.538 93.583 167.349 93.4957 167.003 93.5024C166.361 93.5159 165.719 93.5058 165.073 93.5058C164.912 93.5058 164.761 93.5293 164.663 93.6769C164.391 93.8614 164.539 94.16 164.472 94.4015C164.438 94.5189 164.367 94.5894 164.25 94.5894C164.132 94.5894 164.051 94.5156 164.034 94.4015C164.014 94.2707 164.001 94.1365 164.011 94.0056C164.034 93.6165 163.836 93.4957 163.476 93.5024C162.838 93.5159 162.195 93.5226 161.557 93.4991C161.126 93.4823 160.888 93.6165 160.945 94.0828C161.005 94.5827 160.709 94.6665 160.309 94.633C160.303 94.3243 160.299 94.0157 160.292 93.7071C160.084 93.5326 159.876 93.3615 159.667 93.1871C159.657 93.0428 159.647 92.8952 159.637 92.751C159.59 92.7141 159.549 92.6973 159.509 92.7007C159.509 92.6906 159.509 92.6805 159.509 92.6671C159.553 92.694 159.593 92.7208 159.637 92.751C159.603 92.3048 159.802 91.8385 159.506 91.4192C159.496 91.2716 159.489 91.1239 159.479 90.9763C159.442 90.5335 159.644 90.0639 159.344 89.6479C159.338 89.5003 159.328 89.3493 159.318 89.2017C159.274 88.7052 159.479 88.1852 159.18 87.7156C159.173 87.6183 159.166 87.5176 159.159 87.4203C159.126 86.9272 159.307 86.4173 159.018 85.9476C159.012 85.847 159.005 85.7464 158.998 85.6491C158.958 85.1593 159.146 84.646 158.857 84.1763C158.847 84.0354 158.84 83.8912 158.83 83.7503C158.796 83.3008 158.998 82.8278 158.696 82.4051C158.685 82.2608 158.679 82.1166 158.669 81.9723C158.635 81.5261 158.833 81.0565 158.538 80.6338C158.527 80.4862 158.521 80.3386 158.511 80.1909C158.47 79.7481 158.672 79.2818 158.376 78.8658C158.369 78.7149 158.359 78.5673 158.353 78.4163C158.309 77.9198 158.514 77.4032 158.211 76.9335C158.205 76.8362 158.198 76.739 158.191 76.6417C158.154 76.1485 158.339 75.6319 158.05 75.1656C158.043 75.065 158.04 74.9677 158.033 74.867C157.993 74.3772 158.181 73.864 157.892 73.3977C157.882 73.2534 157.872 73.1092 157.862 72.9649C157.868 72.7435 157.875 72.5187 157.879 72.2973C158.356 72.2034 158.837 72.2537 159.314 72.2671C159.408 72.2336 159.462 72.1698 159.482 72.0759C159.432 70.6032 159.432 69.1338 159.482 67.6611C159.375 67.3995 159.139 67.4431 158.931 67.4431C158.42 67.4397 157.909 67.4397 157.398 67.4397L157.394 67.4364C157.324 67.0137 157.546 66.5541 157.243 66.1549C157.236 66.0542 157.23 65.9536 157.226 65.8496C157.183 65.3598 157.371 64.8499 157.082 64.3836C157.072 64.2393 157.065 64.0917 157.055 63.9475C157.018 63.5013 157.22 63.0316 156.92 62.6123C156.91 62.4647 156.904 62.3204 156.893 62.1728C156.856 61.73 157.058 61.2603 156.759 60.841C156.749 60.6934 156.742 60.5458 156.732 60.3982C156.695 59.9553 156.893 59.489 156.598 59.0731C156.591 58.9221 156.581 58.7711 156.574 58.6202C156.527 58.1807 156.735 57.7144 156.436 57.3018C156.43 57.1508 156.423 56.9965 156.413 56.8455C156.366 56.4061 156.574 55.9431 156.275 55.5305C156.268 55.3762 156.261 55.2219 156.255 55.0675C156.235 55.034 156.218 54.9937 156.204 54.9535C156.221 54.9904 156.238 55.0306 156.255 55.0675C156.214 54.5778 156.403 54.0645 156.113 53.5982C156.103 53.4539 156.097 53.3063 156.087 53.1621C156.05 52.7159 156.255 52.2462 155.952 51.8269C155.945 51.6793 155.935 51.5317 155.925 51.3874C155.888 50.9446 156.09 50.4749 155.791 50.059C155.784 49.908 155.774 49.7604 155.767 49.6094C155.727 49.1666 155.929 48.7003 155.629 48.2877C155.623 48.1367 155.613 47.9857 155.606 47.8348C155.559 47.3953 155.767 46.929 155.468 46.5164C155.461 46.3654 155.455 46.2111 155.444 46.0602C155.448 45.7683 155.455 45.4731 155.458 45.1812C155.458 44.943 155.525 44.7485 155.808 44.7485C156.221 44.7518 156.271 44.4969 156.268 44.1681C156.258 43.477 156.271 42.7826 156.265 42.0915C156.251 40.7228 156.433 40.8905 155.007 40.8771C154.991 40.7865 154.974 40.6926 154.957 40.602C154.94 40.5752 154.93 40.5417 154.92 40.5115C154.933 40.5417 154.943 40.5718 154.957 40.602C154.92 40.1592 155.122 39.6896 154.822 39.2736C154.816 39.1226 154.806 38.975 154.799 38.824C154.755 38.3846 154.964 37.9183 154.661 37.5023C154.654 37.3513 154.648 37.2004 154.638 37.0494C154.59 36.6099 154.799 36.147 154.5 35.7344C154.493 35.58 154.486 35.4257 154.48 35.2714C154.429 34.8353 154.638 34.3723 154.342 33.9631C154.335 33.8088 154.328 33.6511 154.322 33.4968C154.271 33.0607 154.476 32.5977 154.184 32.1884C154.174 31.9871 154.16 31.7859 154.15 31.5846C154.12 31.1418 154.318 30.6755 154.019 30.2595C154.012 30.1085 154.005 29.9609 153.995 29.8099C153.952 29.3705 154.16 28.9008 153.858 28.4882C153.851 28.3372 153.844 28.1863 153.837 28.0353C153.79 27.5958 154.002 27.1295 153.7 26.7169C153.693 26.5659 153.686 26.4116 153.679 26.2607C153.632 25.8212 153.841 25.3582 153.542 24.9456C153.545 24.8383 153.548 24.7276 153.552 24.6202C153.915 24.5565 154.322 24.7678 154.644 24.4525V24.4558L154.658 24.4424C154.654 24.4424 154.654 24.4424 154.651 24.4424C154.943 23.862 154.903 23.275 154.671 22.6879C154.668 22.4296 154.661 22.1713 154.658 21.913C154.486 21.6245 154.197 21.7117 153.958 21.7284C153.639 21.7519 153.414 21.6345 153.222 21.403C153.212 21.2018 153.205 20.9971 153.195 20.7958C153.155 20.353 153.363 19.8867 153.057 19.4707C153.051 19.3231 153.044 19.1722 153.037 19.0246C152.997 18.5817 153.199 18.1154 152.899 17.6994C152.893 17.5485 152.883 17.3975 152.872 17.2466C152.829 16.8071 153.037 16.3441 152.735 15.9315C152.728 15.7772 152.721 15.6262 152.714 15.4719C152.802 15.1801 152.523 14.7272 153.088 14.6467C153.32 14.6131 153.599 14.7339 153.767 14.5091C153.938 14.281 153.837 13.9925 153.851 13.7275C153.861 13.5396 153.858 13.3517 153.851 13.1672C153.817 11.567 154.133 11.7448 152.392 11.7515C152.351 11.3725 152.533 10.9699 152.25 10.621C152.244 10.4633 152.24 10.3057 152.234 10.148C152.177 9.71524 152.392 9.25564 152.089 8.84972C152.079 8.63502 152.069 8.42032 152.059 8.20562C152.328 8.1553 152.647 8.31632 152.866 8.03788L152.876 8.02782L152.879 8.02446C152.876 8.02446 152.872 8.02446 152.872 8.02446C153.104 7.47429 153.125 5.85732 152.899 5.35747C152.889 5.33734 152.856 5.33063 152.832 5.31721C152.832 5.31721 152.832 5.31721 152.832 5.32057C152.832 5.32057 152.832 5.32057 152.832 5.31721C152.526 5.3105 152.224 5.30715 151.918 5.30044C151.864 5.25347 151.813 5.1998 151.763 5.14612C151.756 4.99516 151.75 4.8442 151.743 4.69324C151.696 4.25377 151.908 3.78747 151.605 3.37819C151.598 3.21717 151.595 3.05278 151.588 2.89176C152.012 2.81125 152.482 3.0662 152.869 2.72402V2.72738C153.088 2.58648 153.064 2.36171 153.041 2.15708C152.967 1.49285 153.236 0.798421 152.879 0.154317C152.583 -0.0167735 152.257 0.023483 151.938 0.023483C149.635 0.0167735 147.332 0.0100641 145.025 0C144.814 0.0939318 144.82 0.288505 144.817 0.473014C144.817 1.08357 144.807 1.69748 144.82 2.30804C144.834 2.84815 144.844 2.84815 145.429 2.8884C146.041 2.93202 146.041 2.93202 146.118 3.55599C146.145 3.46206 146.169 3.37819 146.189 3.30439C146.175 3.38155 146.155 3.46206 146.118 3.55599C146.111 3.71031 146.105 3.86462 146.101 4.01894C145.795 4.40473 146.014 4.85426 145.95 5.27025C145.637 5.35076 145.321 5.31386 145.005 5.30379C144.955 5.36418 144.861 5.42121 144.861 5.48159C144.844 6.2733 144.834 7.06837 144.83 7.86344C144.83 8.00098 144.888 8.16536 145.036 8.15865C145.698 8.13852 145.637 8.59476 145.634 9.02417C145.627 9.18184 145.621 9.33615 145.617 9.49382C145.318 9.9031 145.526 10.3694 145.476 10.8055C145.469 10.9598 145.463 11.1108 145.456 11.2651C145.284 11.5737 145.093 11.8186 144.669 11.7549C144.451 11.7214 144.188 11.6744 144.024 11.9193C143.768 12.1105 143.842 12.3956 143.862 12.6405C143.916 13.2511 143.677 13.8885 144.024 14.4756H144.02L144.03 14.4856C144.03 14.4856 144.03 14.4856 144.03 14.4823C144.353 14.7943 144.756 14.5863 145.116 14.6467C145.123 14.7003 145.133 14.7574 145.14 14.811C144.837 15.2237 145.046 15.69 144.999 16.1261C144.988 16.3307 144.982 16.5387 144.972 16.7434C144.676 17.1493 144.888 17.6122 144.83 18.0416C144.824 18.1993 144.817 18.3536 144.814 18.5113C144.514 18.9206 144.726 19.3835 144.672 19.8163C144.666 19.9706 144.659 20.1249 144.652 20.2826C144.35 20.6918 144.561 21.1548 144.511 21.5909C144.524 21.6412 144.514 21.6848 144.484 21.7251C144.165 21.7251 143.845 21.7251 143.523 21.7251C143.334 21.7251 143.143 21.7217 143.059 21.9431C143.059 22.1277 143.059 22.3122 143.059 22.4967C143.055 22.9697 143.042 23.4427 143.049 23.9191C143.055 24.5531 143.059 24.5833 143.681 24.6135C144.064 24.6336 144.198 24.7913 144.188 25.1402C144.222 25.0026 144.245 24.902 144.259 24.8181C144.262 24.9054 144.242 25.0094 144.188 25.1402C144.182 25.2911 144.175 25.4421 144.165 25.5931C143.862 26.0091 144.067 26.4754 144.027 26.9182C144.017 27.1195 144.007 27.3207 144 27.5254C143.701 27.9313 143.913 28.3943 143.859 28.827C143.852 28.9847 143.845 29.139 143.839 29.2967C143.543 29.7059 143.748 30.1689 143.701 30.605C143.694 30.7593 143.684 30.9103 143.677 31.0646C143.381 31.4772 143.586 31.9435 143.539 32.383C143.533 32.534 143.526 32.6849 143.516 32.8392C143.213 33.2519 143.425 33.7182 143.378 34.1576C143.371 34.3086 143.361 34.4596 143.354 34.6105C143.055 35.0265 143.257 35.4962 143.22 35.939C143.213 36.0866 143.203 36.2342 143.196 36.3818C142.894 36.7978 143.099 37.2675 143.059 37.7136C143.049 37.9149 143.038 38.1162 143.028 38.3175C142.729 38.7234 142.941 39.1864 142.887 39.6191C142.88 39.7734 142.874 39.9311 142.867 40.0854C142.618 40.3202 142.753 40.6188 142.726 40.8905C142.514 40.8872 142.302 40.8805 142.09 40.8872C141.448 40.904 141.441 40.9073 141.431 41.5783C141.425 42.323 141.428 43.0677 141.428 43.8125C141.428 44.7652 141.351 44.7686 142.396 44.7485C142.4 44.8156 142.406 44.8826 142.41 44.9497C142.403 45.0973 142.393 45.2483 142.386 45.3959C142.084 45.8119 142.289 46.2816 142.248 46.7244C142.242 46.872 142.232 47.0196 142.225 47.1672C141.922 47.5832 142.127 48.0528 142.09 48.499C142.084 48.6466 142.074 48.7909 142.063 48.9385C141.774 49.4014 141.963 49.9147 141.919 50.4045C141.912 50.5051 141.905 50.6058 141.899 50.7064C141.613 51.1761 141.795 51.6894 141.758 52.1825C141.751 52.3368 141.744 52.4878 141.734 52.6421C141.438 53.0547 141.643 53.5177 141.596 53.9571C141.596 53.9571 141.596 53.9571 141.596 53.9605C141.589 54.1115 141.579 54.2658 141.573 54.4167C141.277 54.8327 141.475 55.299 141.438 55.7418C141.431 55.8894 141.421 56.0404 141.415 56.188C141.115 56.604 141.317 57.0737 141.28 57.5165C141.28 57.5165 141.28 57.5165 141.28 57.5198C141.27 57.6674 141.263 57.815 141.253 57.9627C140.954 58.382 141.156 58.8517 141.119 59.2945C141.119 59.2945 141.119 59.2945 141.119 59.2978C141.109 59.4454 141.102 59.5897 141.092 59.7373C140.803 60.2036 140.991 60.7135 140.947 61.2033C140.941 61.3039 140.937 61.4046 140.93 61.5052C140.641 61.9715 140.83 62.4848 140.789 62.9779C140.783 63.1323 140.776 63.2866 140.766 63.4375C140.47 63.8502 140.675 64.3131 140.628 64.7526C140.621 64.9035 140.611 65.0579 140.604 65.2088C140.308 65.6248 140.507 66.0945 140.47 66.5373C140.46 66.6849 140.453 66.8325 140.443 66.9801C140.275 67.3055 140.063 67.5269 139.643 67.4665C139.354 67.4263 139.051 67.4733 138.759 67.4565C138.342 67.4296 138.187 67.6041 138.194 68.0201C138.211 69.2781 138.2 70.5395 138.2 71.7975C138.2 71.9853 138.19 72.1799 138.399 72.2839C138.87 72.2906 139.34 72.294 139.814 72.3007C139.818 72.7871 139.821 73.2735 139.824 73.76C139.818 73.8606 139.811 73.9613 139.804 74.0619C139.518 74.5349 139.7 75.0482 139.666 75.5447C139.66 75.6956 139.65 75.8466 139.643 75.9976C139.344 76.4136 139.552 76.8799 139.505 77.3193C139.498 77.4703 139.488 77.6179 139.481 77.7689C139.182 78.1848 139.384 78.6511 139.347 79.094C139.337 79.2416 139.33 79.3892 139.32 79.5368C139.024 79.9595 139.219 80.4291 139.189 80.8753C139.179 81.0196 139.169 81.1638 139.159 81.3047C138.856 81.7274 139.058 82.2004 139.024 82.6466C139.024 82.6466 139.024 82.6466 139.024 82.65C139.014 82.7908 139.004 82.9351 138.997 83.076C138.708 83.5423 138.896 84.0556 138.853 84.5454C138.846 84.646 138.839 84.7466 138.836 84.8473C138.547 85.3169 138.732 85.8302 138.695 86.3267C138.695 86.3267 138.695 86.3267 138.695 86.3234C138.695 86.3234 138.695 86.3234 138.695 86.3267C138.688 86.4777 138.678 86.6286 138.671 86.783C138.375 87.1956 138.58 87.6619 138.54 88.1014C138.53 88.2523 138.52 88.3999 138.51 88.5509C138.214 88.9702 138.412 89.4399 138.379 89.8861C138.369 90.0337 138.362 90.1779 138.352 90.3255C138.053 90.7482 138.251 91.2212 138.224 91.6708C138.214 91.8117 138.204 91.9526 138.194 92.0968C137.905 92.5631 138.093 93.0764 138.049 93.5662C138.042 93.6668 138.036 93.7675 138.032 93.8647C137.743 94.3344 137.928 94.8477 137.891 95.3408C137.891 95.3408 137.891 95.3408 137.891 95.3375C137.891 95.3375 137.891 95.3375 137.891 95.3408C137.884 95.4381 137.878 95.5354 137.871 95.6327C137.582 96.1057 137.76 96.619 137.733 97.1121C137.723 97.2631 137.713 97.4107 137.703 97.5616C137.407 97.981 137.605 98.4506 137.568 98.8968C137.558 99.0444 137.552 99.1887 137.542 99.3363C137.242 99.759 137.444 100.229 137.41 100.675C137.4 100.819 137.39 100.96 137.383 101.104C137.088 101.527 137.279 101.993 137.259 102.443C137.246 102.587 137.236 102.731 137.222 102.872C136.936 103.342 137.118 103.855 137.081 104.348C137.074 104.449 137.067 104.546 137.064 104.647C137.02 104.711 136.933 104.778 136.936 104.838C136.953 105.321 136.738 105.482 136.257 105.455C135.568 105.418 134.872 105.452 134.179 105.445C133.557 105.438 133.561 105.428 133.524 104.835C133.51 104.603 133.591 104.348 133.373 104.164C133.366 103.962 133.356 103.761 133.349 103.56C133.352 103.117 133.376 102.678 133.356 102.235C133.342 101.909 133.484 101.554 133.211 101.265C133.174 101.017 133.137 100.769 133.184 100.517C133.191 100.202 133.221 99.8864 133.198 99.5778C133.167 99.1719 133.339 98.7425 133.053 98.3668C133.043 98.1017 133.03 97.8334 133.02 97.5683C133.278 97.5616 133.537 97.5583 133.507 97.1859C133.447 96.8504 133.443 96.5116 133.51 96.1761C133.497 96.0688 133.443 95.995 133.342 95.9581C133.241 95.9514 133.141 95.9447 133.043 95.9413C133.036 95.7702 133.07 95.5891 132.892 95.475C132.882 95.2234 132.875 94.9718 132.865 94.7202C132.872 94.4082 132.899 94.0929 132.875 93.7842C132.845 93.3817 133.016 92.9523 132.73 92.5799C132.72 92.3249 132.714 92.07 132.704 91.815C132.791 91.0401 132.572 90.245 132.865 89.4835C132.862 89.4835 132.862 89.4835 132.858 89.4835C133.114 88.9635 133.114 88.6213 132.858 88.1014C132.862 88.1014 132.865 88.1014 132.868 88.1014C132.653 87.8665 132.515 87.6116 132.549 87.2727C132.569 87.0513 132.619 86.7997 132.404 86.6219C132.398 86.4173 132.391 86.216 132.384 86.0114C132.357 85.9678 132.34 85.9208 132.327 85.8671C132.347 85.9141 132.364 85.9611 132.384 86.008C132.387 85.5518 132.411 85.0955 132.391 84.6393C132.377 84.3307 132.512 83.9918 132.243 83.7201C132.236 83.5155 132.229 83.3108 132.223 83.1028C132.226 82.5426 132.253 81.979 132.226 81.4188C132.209 81.09 132.327 80.8552 132.562 80.6539C132.814 80.1708 132.814 79.6878 132.562 79.2047C132.478 79.1476 132.387 79.094 132.307 79.0302C131.997 78.7786 131.984 78.3224 132.27 78.1144C132.811 77.7219 132.841 77.6112 132.542 76.9771H132.546C132.498 76.8295 132.377 76.796 132.243 76.7893C132.233 76.645 132.226 76.4974 132.216 76.3532C132.213 76.115 132.317 75.85 132.068 75.6655C132.071 75.538 132.048 75.4206 131.927 75.3468C131.893 75.3166 131.883 75.283 131.893 75.2394C131.883 75.1388 131.833 75.065 131.739 75.0247C131.695 74.9643 131.638 74.914 131.591 74.8603V74.857C131.534 74.81 131.483 74.753 131.426 74.706C131.359 74.5685 131.238 74.5383 131.1 74.5416C130.949 74.3236 130.791 74.3303 130.622 74.5282C130.585 74.555 130.548 74.5618 130.505 74.5483C130.424 74.5752 130.364 74.6356 130.293 74.6792L130.279 74.6859C129.984 74.7194 129.822 74.8771 129.819 75.1824C129.671 75.2528 129.654 75.387 129.664 75.5279C129.674 75.5782 129.664 75.6218 129.634 75.6655C129.452 75.7963 129.496 75.9875 129.499 76.1687C129.493 76.2693 129.486 76.3666 129.479 76.4672C129.308 76.5846 129.261 76.7792 129.167 76.9469C128.904 77.2254 129.086 77.5743 129.009 77.8829C129.116 77.8896 129.21 77.9098 129.294 77.9366C129.234 77.9265 129.167 77.9165 129.086 77.903C129.059 77.8997 129.036 77.8896 129.009 77.8829C129.062 77.9768 129.14 78.0272 129.244 78.0674C129.614 78.215 129.785 78.5941 129.59 78.886C129.499 79.0235 129.311 79.0973 129.167 79.198C128.938 79.6844 128.935 80.1675 129.167 80.6539C129.402 80.8552 129.523 81.09 129.496 81.4188C129.466 81.761 129.496 82.1098 129.503 82.4587C129.503 82.4587 129.503 82.4554 129.506 82.4554C129.506 82.4554 129.506 82.4587 129.503 82.4587C129.496 82.6634 129.489 82.8647 129.483 83.0693C129.284 83.2303 129.331 83.4584 129.331 83.6664C129.331 84.23 129.338 84.7936 129.341 85.3538C129.341 85.3538 129.341 85.3539 129.341 85.3505C129.341 85.3505 129.341 85.3505 129.341 85.3538C129.335 85.6122 129.325 85.8705 129.318 86.1288C129.036 86.4575 129.19 86.8501 129.18 87.2124C129.167 87.5478 129.146 87.8498 128.851 88.0645C128.619 88.457 128.797 88.8998 128.699 89.3091C128.716 89.403 128.77 89.4634 128.854 89.5003C129.14 90.0303 128.951 90.6107 129.029 91.1609C129.019 91.4158 129.012 91.6708 129.002 91.9257C128.837 92.0599 128.851 92.2444 128.854 92.4256C128.857 92.9724 128.864 93.5192 128.871 94.0627C128.861 94.3143 128.854 94.5659 128.844 94.8208C128.558 95.1563 128.75 95.5522 128.693 95.9178C128.424 95.9648 128.195 96.0319 128.225 96.3976C128.252 96.7062 128.225 97.0215 128.225 97.3335C128.293 97.5818 128.498 97.5449 128.679 97.5549C128.679 97.6086 128.679 97.6656 128.683 97.7193C128.514 97.8568 128.531 98.0514 128.535 98.2359C128.538 98.8264 128.541 99.4134 128.545 100.004C128.538 100.209 128.531 100.41 128.524 100.614C128.336 100.772 128.373 100.99 128.373 101.191C128.373 101.762 128.38 102.335 128.387 102.906C128.387 102.906 128.387 102.906 128.387 102.902C128.387 102.902 128.387 102.902 128.387 102.906C128.38 103.107 128.37 103.308 128.363 103.51C128.074 103.865 128.235 104.281 128.219 104.667C128.185 105.425 128.202 105.432 127.459 105.435C125.606 105.438 123.757 105.435 121.905 105.438C120.899 105.438 120.953 105.489 120.953 104.466C120.953 97.8803 120.953 91.295 120.953 84.7064C120.953 84.3575 120.94 84.012 120.933 83.6631C120.943 83.0861 120.957 82.5091 120.967 81.9287C121.074 81.8348 121.115 81.714 121.115 81.5731C121.115 80.1641 121.115 78.7585 121.115 77.3495C121.115 77.1851 121.088 77.0308 120.92 76.9469C120.92 76.9469 120.92 76.947 120.92 76.9503C120.92 76.9503 120.92 76.9503 120.92 76.9469C120.782 76.9469 120.647 76.9503 120.509 76.9503C120.335 77.004 120.311 77.1415 120.321 77.2925C120.335 77.3394 120.328 77.3831 120.301 77.4267C120.113 77.5575 120.153 77.7521 120.16 77.9332C120.173 77.9836 120.166 78.0272 120.14 78.0708C119.955 78.1983 119.995 78.3928 119.998 78.574C120.012 78.6243 120.002 78.6713 119.975 78.7149C119.793 78.8424 119.83 79.0336 119.834 79.2147C119.847 79.2651 119.837 79.3154 119.81 79.359C119.628 79.4865 119.669 79.6777 119.669 79.8555C119.682 79.9092 119.672 79.9561 119.645 80.0031C119.467 80.1306 119.507 80.3184 119.507 80.4962C119.518 80.5533 119.504 80.6036 119.467 80.6472C119.427 80.7009 119.383 80.7545 119.343 80.8082C119.144 80.6573 119.181 80.4392 119.178 80.2346C119.175 79.9729 119.178 79.7112 119.175 79.4496C119.175 79.255 119.138 79.0805 118.896 79.0537C118.667 79.0269 118.556 79.1409 118.536 79.359C118.401 79.4328 118.374 79.5536 118.385 79.6877C118.183 79.7884 118.216 79.983 118.21 80.1608C118.079 80.2346 118.052 80.3553 118.062 80.4929C117.904 80.5734 117.894 80.7143 117.91 80.8652C117.924 80.9055 117.914 80.9424 117.884 80.9692C117.756 81.0431 117.732 81.1638 117.736 81.2947C117.594 81.3617 117.571 81.4825 117.581 81.6201C117.443 81.6771 117.41 81.7945 117.406 81.9253L117.403 81.9287C117.356 81.9857 117.299 82.036 117.262 82.1031C117.12 82.1568 117.087 82.2742 117.08 82.4084V82.4118C117.033 82.4688 116.972 82.5191 116.939 82.5862C116.798 82.6399 116.764 82.7573 116.757 82.8915V82.8949C116.71 82.9519 116.65 83.0022 116.616 83.0693C116.475 83.123 116.441 83.2404 116.435 83.3746V83.3779C116.387 83.435 116.327 83.4853 116.293 83.5524C116.156 83.6027 116.119 83.7168 116.098 83.8476C116.055 83.9147 116.014 83.9818 115.971 84.0489L115.977 84.0388C115.523 84.0321 115.073 84.0354 114.619 84.0187C114.061 84.0019 114.031 83.9818 114.024 83.4249C114.011 82.442 114.021 81.459 114.021 80.4761C114.374 80.4057 114.727 80.4157 115.08 80.4694C115.107 80.3956 115.123 80.3352 115.147 80.2681C115.127 80.3352 115.103 80.4023 115.083 80.4694C115.486 80.2279 115.339 79.8454 115.254 79.5401C115.174 79.2483 114.848 79.3724 114.622 79.3556C114.437 79.3389 114.249 79.3523 114.061 79.3523C114.044 79.2583 114.027 79.1678 114.011 79.0738C113.984 78.735 114.152 78.3727 113.876 78.0674C113.849 78.0205 113.846 77.9735 113.859 77.9232C113.863 77.742 113.9 77.5508 113.715 77.4233C113.684 77.3864 113.678 77.3428 113.691 77.2958C113.705 77.1516 113.691 77.0208 113.55 76.9369C113.52 76.91 113.51 76.8765 113.526 76.8396C113.523 76.7457 113.486 76.6719 113.405 76.6182C113.372 76.5846 113.362 76.5444 113.372 76.4974C113.348 76.4203 113.291 76.3632 113.247 76.2961C113.214 76.2659 113.2 76.229 113.207 76.1854C113.197 76.1552 113.183 76.1318 113.167 76.1083C113.14 76.058 113.109 76.0043 113.083 75.954C113.062 75.8265 113.025 75.7091 112.888 75.6587C112.851 75.5916 112.793 75.5413 112.736 75.4877C112.689 75.434 112.639 75.3769 112.592 75.3233L112.585 75.3166C112.528 75.2729 112.477 75.2226 112.44 75.1589L112.427 75.1455C112.38 75.0952 112.333 75.0482 112.286 74.9979L112.269 74.9811C112.219 74.9341 112.171 74.8872 112.121 74.8368L112.108 74.8234C112.047 74.7865 111.993 74.7362 111.95 74.6792L111.943 74.6758C111.882 74.6322 111.835 74.5752 111.775 74.5316C111.744 74.4477 111.687 74.3974 111.6 74.3772C111.546 74.2296 111.425 74.2062 111.291 74.2062C111.227 74.072 111.109 74.0418 110.975 74.0384H110.971C110.901 73.9109 110.783 73.8807 110.648 73.8807C110.574 73.7499 110.453 73.7231 110.319 73.7298C110.211 73.5319 110.02 73.5654 109.838 73.562C109.784 73.5084 109.734 73.4513 109.68 73.3977C109.653 73.3574 109.647 73.3172 109.667 73.2735C109.64 72.9381 109.805 72.5758 109.529 72.2738C109.522 72.1766 109.515 72.0759 109.509 71.9786C109.253 71.5324 109.075 71.509 108.561 71.8377C108.554 71.9317 108.547 72.0222 108.54 72.1162C108.285 72.3644 108.423 72.6764 108.406 72.9616C108.399 73.0555 108.389 73.1494 108.382 73.24C108.261 73.3071 108.231 73.4178 108.228 73.5453C108.134 73.5553 108.04 73.5654 107.945 73.5755C107.757 73.5654 107.559 73.5218 107.424 73.7164C107.387 73.7432 107.347 73.7499 107.303 73.7398C107.165 73.7231 107.021 73.713 106.947 73.5654C107.128 73.4446 107.098 73.2568 107.098 73.079C107.296 72.9548 107.256 72.7603 107.253 72.5758C107.243 72.5254 107.249 72.4785 107.273 72.4315C107.502 72.2403 107.404 71.9853 107.407 71.7505C107.414 71.5492 107.424 71.3446 107.431 71.1433C107.626 70.9856 107.626 70.8246 107.431 70.6669C107.424 70.5126 107.421 70.3549 107.414 70.2006C107.387 69.9255 107.525 69.6203 107.276 69.3821C107.253 69.3318 107.246 69.2781 107.256 69.2244C107.256 69.05 107.293 68.8621 107.118 68.738C107.091 68.691 107.085 68.6441 107.091 68.5904C107.098 68.4595 107.081 68.3354 106.96 68.2549C106.933 68.2079 106.923 68.161 106.93 68.1073C106.937 67.9731 106.917 67.849 106.789 67.7685C106.762 67.7316 106.752 67.688 106.762 67.6443C106.775 67.4967 106.759 67.3625 106.607 67.2887C106.614 67.1546 106.587 67.0338 106.466 66.9533C106.456 66.8258 106.422 66.705 106.301 66.6346C106.291 66.5004 106.258 66.383 106.12 66.3259C106.076 66.2723 106.036 66.2186 105.992 66.1616C105.962 66.128 105.952 66.0911 105.955 66.0475C105.945 65.9502 105.898 65.8798 105.807 65.8362C105.804 65.702 105.773 65.5812 105.636 65.5208C105.595 65.4571 105.538 65.4101 105.494 65.3497L105.491 65.343C105.484 65.2122 105.451 65.0948 105.313 65.0377C105.273 64.9773 105.215 64.927 105.175 64.8666L105.172 64.8599C105.162 64.7291 105.128 64.6117 104.99 64.558C104.95 64.4909 104.893 64.4372 104.835 64.3869C104.792 64.3299 104.745 64.2762 104.701 64.2192L104.691 64.2024C104.677 64.0749 104.64 63.9609 104.509 63.9105C104.469 63.8468 104.412 63.7965 104.358 63.7428C104.304 63.6925 104.261 63.6355 104.22 63.5751L104.21 63.5583C104.197 63.4308 104.16 63.3201 104.025 63.2664C103.985 63.1994 103.928 63.149 103.867 63.1021C103.82 63.0417 103.766 62.9947 103.719 62.9343L103.716 62.931C103.659 62.884 103.612 62.8303 103.575 62.77L103.565 62.7565C103.551 62.6291 103.514 62.5184 103.38 62.468C103.356 62.3842 103.302 62.3305 103.222 62.3036C103.195 62.2198 103.141 62.1628 103.057 62.1359C103.057 62.1393 103.06 62.1393 103.06 62.1426C103.05 62.1259 103.037 62.1124 103.023 62.1057C102.983 62.0621 102.939 62.0185 102.899 61.9749L102.906 61.9816C102.859 61.9179 102.801 61.8642 102.744 61.8105L102.748 61.8139C102.697 61.7568 102.64 61.7032 102.59 61.6461C102.536 61.5958 102.482 61.5421 102.435 61.4851L102.432 61.4817C102.374 61.4348 102.324 61.3811 102.277 61.3241L102.27 61.3174C102.213 61.2704 102.163 61.2201 102.116 61.163L102.109 61.1563C102.052 61.1127 102.001 61.059 101.958 61.002L101.951 60.9953C101.894 60.9517 101.84 60.9014 101.8 60.841L101.793 60.8343C101.736 60.7907 101.682 60.7404 101.638 60.6833L101.631 60.6766C101.574 60.633 101.52 60.5827 101.477 60.5223L101.47 60.5156C101.413 60.472 101.359 60.4183 101.312 60.3613L101.309 60.3579C101.248 60.311 101.198 60.2573 101.144 60.2036C101.09 60.1499 101.036 60.0929 100.976 60.0459L100.979 60.0493C100.929 59.9923 100.875 59.9386 100.814 59.8916C100.767 59.8279 100.717 59.7742 100.65 59.7306C100.623 59.6467 100.569 59.593 100.485 59.5696C100.458 59.4857 100.404 59.432 100.32 59.4085C100.27 59.2743 100.159 59.2408 100.031 59.2274L100.018 59.2173C99.9672 59.1703 99.9134 59.12 99.863 59.0731L99.8563 59.0664C99.7958 59.0227 99.7453 58.9657 99.6882 58.9154L99.6915 58.9187C99.6377 58.8617 99.5873 58.808 99.5234 58.7644C99.4965 58.6806 99.4394 58.6269 99.3553 58.6034C99.3015 58.4692 99.1872 58.4357 99.0561 58.4256L99.0494 58.4189C98.9922 58.3719 98.9384 58.3216 98.8813 58.2746C98.8308 58.2176 98.7804 58.1606 98.7165 58.1203C98.6628 57.9861 98.5484 57.9526 98.4207 57.9392L98.4072 57.9291C98.3501 57.8821 98.2963 57.8352 98.2391 57.7882C98.1853 57.7345 98.1349 57.6775 98.071 57.6372C98.0139 57.4997 97.8962 57.4695 97.7651 57.4594L97.7584 57.4561C97.6978 57.4125 97.6508 57.3554 97.5903 57.3118C97.5331 57.1777 97.4188 57.1441 97.2877 57.134L97.2776 57.1273C97.2204 57.0804 97.1633 57.0334 97.1095 56.9898C97.0523 56.859 96.938 56.8254 96.8069 56.812L96.7934 56.8053C96.7363 56.7583 96.6792 56.7147 96.622 56.6677C96.5615 56.5302 96.4404 56.5 96.306 56.4966C96.2623 56.4094 96.195 56.3625 96.1009 56.349C96.0572 56.3524 96.0168 56.3423 95.9798 56.3155C95.926 56.2719 95.8723 56.2283 95.8185 56.1847C95.7579 56.0471 95.6369 56.0169 95.5024 56.0136C95.4621 55.9263 95.3948 55.8794 95.3007 55.866C95.257 55.8693 95.2167 55.8593 95.1763 55.8358C95.1259 55.7854 95.0788 55.7351 95.0284 55.6848C94.9779 55.4198 95.1225 55.1145 94.8704 54.8897C94.8636 54.7354 94.8569 54.5811 94.8502 54.4268C94.8098 54.0444 94.9948 53.6317 94.7056 53.2795C94.6989 53.1285 94.6922 52.9776 94.6854 52.8232C94.6586 52.4911 94.8199 52.1288 94.5476 51.8302C94.5409 51.6726 94.5375 51.5183 94.5308 51.3606C94.4871 51.0318 94.6787 50.6628 94.3661 50.381C94.319 50.3206 94.2652 50.2703 94.2148 50.2166C94.1744 50.1328 94.1072 50.0824 94.0164 50.0657C94.0164 50.0657 94.0164 50.0657 94.013 50.0657C93.9223 50.0623 93.8348 50.0623 93.7441 50.059C93.6029 50.0556 93.4785 50.0757 93.4146 50.2233C93.27 50.2871 93.2465 50.4112 93.2498 50.5487C93.2465 50.6527 93.2398 50.7567 93.2364 50.8607C92.9473 51.2096 93.1355 51.6189 93.0885 51.998C93.0817 52.1557 93.0784 52.3133 93.0717 52.471C92.7993 52.7696 92.9641 53.1285 92.9338 53.4573C92.9271 53.6116 92.9204 53.7659 92.9136 53.9169C92.6279 54.2691 92.8128 54.6784 92.7691 55.0575C92.7624 55.2118 92.7556 55.3695 92.7489 55.5238C92.601 55.5909 92.4968 55.6949 92.4463 55.8492C92.3085 55.8458 92.1874 55.876 92.1269 56.0169C92.0698 56.0605 92.016 56.1041 91.9622 56.1511C91.9286 56.1746 91.8882 56.1847 91.8445 56.1813C91.747 56.1914 91.6764 56.2417 91.6361 56.3289C91.5016 56.3323 91.3805 56.3625 91.3167 56.5C91.2629 56.5436 91.2091 56.5906 91.1553 56.6342C91.1217 56.661 91.0847 56.6711 91.0443 56.6644C90.9435 56.6744 90.8729 56.7248 90.8325 56.8187C90.7821 56.8657 90.7283 56.9093 90.6745 56.9495C90.6409 56.9764 90.6006 56.9898 90.5569 56.9864C90.4594 56.9999 90.3887 57.0502 90.3484 57.1408C90.298 57.1877 90.2442 57.2313 90.1904 57.2749C90.1568 57.3018 90.1164 57.3152 90.0727 57.3118C89.9752 57.3219 89.9046 57.3756 89.8643 57.4662C89.8071 57.5131 89.7533 57.5567 89.6962 57.6037C89.6962 57.6037 89.6962 57.6037 89.6928 57.6037L89.6827 57.6104C89.5516 57.6205 89.4373 57.654 89.3801 57.7882C89.3163 57.8318 89.2692 57.8855 89.212 57.9358C89.165 57.9861 89.1145 58.0331 89.0574 58.07C89.0238 58.0968 88.9868 58.1136 88.9397 58.1103C88.8388 58.1237 88.7716 58.174 88.7346 58.2679C88.6707 58.3115 88.6203 58.3652 88.5699 58.4189C88.5194 58.4726 88.4623 58.5195 88.4051 58.5631L88.3951 58.5699C88.2539 58.5833 88.1328 58.6269 88.0992 58.7846C88.042 58.8751 87.9849 58.9691 87.9277 59.0596C86.7947 59.905 85.7827 60.8712 84.8817 61.9615C84.2665 62.6089 83.631 63.2396 83.1906 64.028C82.6157 64.662 82.1383 65.3598 81.7685 66.1314C81.1229 67.0002 80.7531 67.9865 80.5279 69.0332C80.2152 70.1637 80.1681 71.301 80.4875 72.4382C80.4404 72.9783 80.8439 73.4144 80.891 73.9982C80.4741 73.8539 80.1379 73.6895 79.768 73.6459C79.3511 73.5956 79.183 73.3641 79.1898 72.9481C79.1931 72.6865 79.099 72.4248 79.0721 72.1598C79.0452 71.9149 78.9679 71.7606 78.6854 71.7606C78.4266 71.7606 78.2921 71.8612 78.2585 72.1229C78.2316 72.3611 78.1374 72.5959 78.1374 72.8307C78.1408 73.3742 77.8517 73.599 77.3642 73.7767C76.5102 74.0921 75.71 74.5282 75.1687 75.3132C74.5703 75.8835 74.1937 76.5746 74.0223 77.3831L74.0324 77.3898C73.9013 77.4703 73.8912 77.5944 73.9046 77.7286C73.7634 77.9802 73.7096 78.2519 73.7432 78.5371C73.7264 78.6444 73.6962 78.7484 73.6995 78.8558C73.7231 79.2852 73.565 79.5234 73.0977 79.4697C73.017 79.4596 72.9363 79.4764 72.8557 79.4697C72.4757 79.4395 72.4186 79.6643 72.422 79.9729C72.4253 80.2648 72.5161 80.4358 72.8355 80.4224C72.97 80.4157 73.1044 80.4358 73.2389 80.4224C73.6256 80.3889 73.7567 80.56 73.75 80.9391C73.7331 81.875 73.7365 82.8143 73.7432 83.7537C73.7466 84.0522 73.6323 84.1965 73.3196 84.1864C72.7582 84.1696 72.1933 84.1663 71.6319 84.1562C71.457 83.8107 71.2486 83.4886 70.983 83.2068C70.9359 83.1498 70.872 83.1062 70.8418 83.0324C70.8418 83.0324 70.8418 83.0324 70.8451 83.0324C70.8922 83.0894 70.9359 83.1498 70.983 83.2068C70.9729 83.1196 70.9292 83.0592 70.8451 83.029C70.1929 81.9589 69.5777 80.8686 69.1809 79.671C69.1641 79.6207 69.1406 79.5703 69.1171 79.5234C69.0364 79.3623 68.9927 79.1309 68.7405 79.198C68.5354 79.2516 68.5859 79.4529 68.5825 79.6039C68.5758 80.0635 68.5791 80.5264 68.5791 81.0296C68.1353 80.8552 68.095 80.5566 68.021 80.2748C67.7857 79.369 67.547 78.4633 67.3049 77.5609C67.2646 77.4065 67.2377 77.2455 67.1671 77.1046C67.1032 76.9771 66.9586 76.9503 66.814 76.9771C66.693 77.0006 66.6392 77.0879 66.6325 77.2019C66.6224 77.3361 66.619 77.4703 66.619 77.6045C66.6325 79.0772 66.6426 80.5499 66.6628 82.0226C66.6661 82.2608 66.6258 82.5091 66.7636 82.7271C66.7703 83.4786 66.7871 84.2267 66.7871 84.9781C66.7838 91.7915 66.7771 98.6016 66.7703 105.415C65.9702 105.425 65.1666 105.442 64.3631 105.445C62.8905 105.449 61.4213 105.449 59.9487 105.445C59.6865 105.445 59.3873 105.492 59.357 105.096C59.4075 104.07 59.2696 103.057 59.1889 102.037C59.1755 101.43 59.2763 100.816 59.0612 100.222V100.219C59.1049 99.8596 59.0881 99.5007 59.0343 99.1451C59.0309 98.6922 59.0275 98.2393 59.0242 97.7831C59.0208 97.5918 59.0645 97.4778 59.2562 97.3402C59.6899 97.0282 59.5957 96.1896 59.1082 95.948C58.8762 95.834 58.8796 95.6763 58.8796 95.5018C58.8796 94.9382 58.8124 94.3847 58.725 93.8312C58.7687 92.808 58.6981 91.7882 58.5602 90.7717C58.6611 90.3591 58.4459 89.923 58.6342 89.5238C59.0074 88.7387 58.9939 88.5911 58.4795 87.9269C58.4089 87.833 58.4224 87.6753 58.3955 87.5478C58.4493 86.5783 58.3181 85.6155 58.2341 84.6527C58.2475 83.8442 58.2509 83.0357 58.0794 82.2373C58.0761 82.0226 58.0727 81.8046 58.0694 81.5899C58.1769 81.2276 57.8575 80.768 58.4594 80.5063C58.735 80.3855 58.5535 79.8622 58.5669 79.5234C58.577 79.2852 58.4123 79.2349 58.2072 79.1845C57.7836 79.0805 57.9752 78.7082 57.9315 78.4465C57.8979 78.2452 57.8643 77.9768 58.1736 77.9467C58.7519 77.8829 58.6644 77.373 58.5199 77.1751C58.1803 76.7121 58.1971 76.1854 58.0458 75.6923C57.8542 75.0683 57.5045 74.5584 56.7716 74.5416C56.3749 74.5349 56.348 74.3269 56.348 74.0284C56.348 73.4379 56.3312 72.8508 56.3211 72.2604C56.3715 70.7575 56.3648 69.2546 56.3211 67.7517C56.3211 66.2085 56.3211 64.662 56.3245 63.1188C56.5161 62.9343 56.7582 62.9444 57.0002 62.9444C57.4541 62.9478 57.908 62.9545 58.3619 62.9444C60.1101 62.8941 59.8042 63.3235 59.8445 61.3274C59.8512 60.9584 59.7268 60.7907 59.3368 60.8074C58.8325 60.8309 58.3249 60.8175 57.8172 60.8209C57.6962 59.8614 57.7735 58.8986 57.7634 57.9358C57.7466 56.4161 57.76 56.4161 56.2068 56.4732C56.1093 56.188 56.1395 55.8894 56.1395 55.5976C56.1362 54.6348 56.1429 53.6686 56.1362 52.7058C56.1328 52.008 56.1261 52.0013 55.4201 51.998C53.7827 51.9879 52.1454 51.9846 50.5081 51.9812C50.5047 49.0962 50.5014 46.2078 50.4947 43.3227C50.4913 42.6484 50.4812 42.635 49.8391 42.635C46.8939 42.6316 43.9487 42.6383 41.0002 42.6451C40.8321 42.4102 40.8523 42.1385 40.8489 41.8701C40.8321 40.5551 41.0238 40.6893 39.6184 40.7127C38.9864 40.7228 38.482 40.5718 38.0282 40.119C37.6516 39.7432 37.1977 39.448 36.7808 39.1159C36.0345 38.4651 35.2881 37.8143 34.5384 37.1635C34.3467 36.9555 34.0946 37.0192 33.8626 37.0159C31.2503 37.0125 28.6346 37.0125 26.0223 37.0159C25.7903 37.0159 25.5348 36.9521 25.3432 37.1601L25.3263 37.1668C25.1986 37.1802 25.0843 37.2138 25.0305 37.348C24.9666 37.3882 24.9128 37.4419 24.8691 37.5056C24.8052 37.5493 24.7548 37.6063 24.701 37.6633L24.7044 37.66C24.6506 37.7103 24.6001 37.7673 24.5363 37.8109L24.5295 37.8176C24.4858 37.8747 24.4354 37.9216 24.3715 37.9585L24.3513 37.9719C24.227 37.9887 24.1126 38.0223 24.0622 38.1531C23.9983 38.1934 23.9445 38.247 23.8975 38.3108C23.8336 38.3544 23.7832 38.4114 23.7294 38.4651C23.6756 38.5188 23.6218 38.5657 23.5646 38.6161L23.5579 38.6228C23.5142 38.6798 23.4638 38.7268 23.4033 38.7637L23.3831 38.7771C23.2553 38.7938 23.1444 38.8274 23.0939 38.9616C23.0906 38.9649 23.0839 38.9649 23.0805 38.9683C23.0099 38.9951 22.9595 39.0421 22.9359 39.1159C22.872 39.1595 22.8183 39.2165 22.7678 39.2736C22.7107 39.3239 22.6602 39.3776 22.6031 39.4245L22.5997 39.4279C22.556 39.4849 22.5022 39.5319 22.4417 39.5688L22.4249 39.5822C22.2971 39.5956 22.1862 39.6325 22.1358 39.7634C22.0685 39.8036 22.0181 39.8573 21.971 39.921C21.9071 39.9646 21.8567 40.0217 21.8029 40.0787C21.7458 40.129 21.6987 40.1827 21.6382 40.2297L21.6348 40.233C21.5911 40.2901 21.5373 40.337 21.4768 40.3739L21.46 40.3873C21.3322 40.4008 21.2213 40.4377 21.1675 40.5651C20.5859 40.5618 20.0042 40.5685 19.4226 40.5551C19.0561 40.545 18.888 40.6859 18.8981 41.0616C18.9115 41.538 18.9015 42.011 18.9015 42.4874C16.0101 42.4874 13.1154 42.4874 10.224 42.4874C10.0088 42.4874 9.79703 42.4907 9.58186 42.4974C9.3566 42.5042 9.23893 42.6283 9.23557 42.8497C9.22884 43.0644 9.22548 43.2757 9.22548 43.4904C9.22548 46.2715 9.22548 49.0525 9.22548 51.8302C7.4167 51.837 5.60455 51.8437 3.79577 51.8504C3.49319 51.9812 3.58732 52.2529 3.58396 52.4811C3.57387 53.3399 3.59405 54.1987 3.57387 55.0541C3.56379 55.4466 3.74534 55.9096 3.45284 56.2149C3.20741 56.4732 2.78715 56.3155 2.44759 56.3256C2.10802 56.3356 1.95337 56.4732 1.96681 56.812C1.9769 56.9999 1.96681 57.1877 1.96681 57.3756C1.96681 58.2881 1.95337 59.2005 1.97018 60.1097C1.9769 60.5156 1.83569 60.7102 1.41208 60.68C1.1969 60.6632 0.981734 60.6665 0.766563 60.68C0.514409 60.7001 0.218548 60.576 0.0336355 60.8712C0.0336355 61.5455 0.0336355 62.2231 0.0336355 62.8974C0.215186 63.1893 0.511047 63.0853 0.763201 63.0886C1.64406 63.0987 2.52828 63.092 3.4125 63.092C3.42931 63.357 3.4562 63.6254 3.4562 63.8904C3.45284 78.678 3.44612 93.4655 3.43603 108.253C3.43603 108.545 3.47638 108.844 3.38224 109.132C3.32845 109.132 3.27465 109.132 3.22086 109.132C2.02397 109.139 2.13156 109.038 2.12483 110.192C2.12147 110.89 2.11138 110.89 1.40199 110.903C1.24061 110.907 1.07923 110.887 0.921217 110.907C0.621994 110.95 0.268979 110.762 0.0369975 111.105C0.0336355 111.735 0.0302734 112.366 0.0302734 112.997C7.39653 112.997 14.7628 112.997 22.1257 112.997C22.1795 112.997 22.2333 112.997 22.2871 112.997C22.2803 112.359 22.2635 111.719 22.2669 111.081C22.277 108.605 22.2232 106.133 22.1358 103.66C22.1963 102.426 22.1795 101.191 22.1257 99.9569C22.1828 98.9907 22.1727 98.0246 22.1223 97.0584C22.1795 96.0386 22.1727 95.0188 22.1189 93.9989C22.1727 93.0328 22.1694 92.0666 22.1156 91.1005C22.166 90.6711 22.1559 90.2383 22.1156 89.8089C22.1257 89.4902 22.1425 89.1682 22.1458 88.8495C22.1492 85.4847 22.1458 82.1199 22.1492 78.7518C22.3005 78.6008 22.2938 78.413 22.2871 78.2217C22.3173 78.1848 22.324 78.1446 22.3072 78.101C22.7308 77.0778 23.3058 76.1485 24.079 75.3501C25.1246 74.4879 26.3249 73.921 27.6193 73.5386C27.8512 73.5453 28.0866 73.5688 28.2816 73.3977C28.3824 73.391 28.4867 73.3809 28.5875 73.3742C29.4986 73.3742 30.4098 73.3742 31.3209 73.3742C31.4217 73.3809 31.5226 73.391 31.6235 73.3977C31.8185 73.5688 32.0572 73.5419 32.2892 73.5386C33.9265 74.0149 35.3755 74.7932 36.4951 76.1083L36.5018 76.1183C36.5085 76.2056 36.559 76.2626 36.6396 76.2894C36.6565 76.3733 36.7002 76.4303 36.7808 76.4605C36.7943 76.5947 36.8414 76.7088 36.9624 76.7792C37.6483 78.1245 37.8231 79.5603 37.7794 81.0498C37.7424 82.3044 37.7827 83.5591 37.7861 84.8137C37.7424 85.1358 37.7357 85.4545 37.7861 85.7765C37.739 86.3133 37.7357 86.85 37.7861 87.3868C37.7323 88.8897 37.7289 90.3926 37.7827 91.8989C37.7323 93.3481 37.7189 94.7974 37.7727 96.2466C37.7357 98.0615 37.6819 99.8764 37.6684 101.691C37.6382 105.459 37.6281 109.223 37.6113 112.99C37.6651 112.99 37.7189 112.99 37.7727 112.99C45.0313 112.99 52.29 112.99 59.5487 112.99C130.303 112.99 201.054 112.99 271.808 112.99C272.178 112.909 271.919 112.601 271.919 112.436ZM9.35996 51.8302C9.35996 51.8269 9.35996 51.8269 9.35996 51.8302C9.36333 51.8269 9.36333 51.8269 9.35996 51.8302ZM9.50117 51.8269C9.50789 51.8235 9.51126 51.8202 9.51798 51.8168C9.51798 51.8202 9.51798 51.8235 9.51798 51.8269C9.51126 51.8269 9.50453 51.8269 9.50117 51.8269ZM2.2963 110.424C2.28285 110.471 2.26604 110.514 2.24586 110.558C2.25259 110.514 2.25931 110.474 2.2694 110.424C2.27612 110.424 2.28621 110.424 2.2963 110.424ZM3.37215 109.26C3.36543 109.263 3.3587 109.266 3.35198 109.27C3.35534 109.253 3.35198 109.236 3.35198 109.216C3.35534 109.236 3.36207 109.249 3.37215 109.26ZM106.92 73.5453C106.923 73.5453 106.943 73.562 106.943 73.562C106.933 73.5553 106.927 73.552 106.92 73.5453ZM129.826 79.1409C129.822 79.1476 129.819 79.151 129.816 79.1577C129.812 79.1544 129.812 79.151 129.809 79.1476C129.812 79.1443 129.819 79.1443 129.826 79.1409ZM129.701 81.1135C129.701 81.1169 129.698 81.1169 129.698 81.1202C129.698 81.1169 129.698 81.1101 129.698 81.1068C129.698 81.1101 129.698 81.1101 129.701 81.1135ZM132.549 80.6136C132.552 80.6136 132.552 80.6136 132.556 80.6136L132.586 80.6405C132.572 80.6338 132.559 80.6237 132.549 80.6136ZM131.927 79.0034C131.927 79.0135 131.927 79.0202 131.927 79.0302C131.92 79.0202 131.91 79.0135 131.9 79.0034C131.907 79.0034 131.917 79.0034 131.927 79.0034ZM119.652 80.4526C119.659 80.4526 119.665 80.4526 119.672 80.4526C119.669 80.4593 119.665 80.4627 119.662 80.4694C119.662 80.4627 119.662 80.4593 119.662 80.4526C119.659 80.456 119.652 80.4526 119.652 80.4526ZM106.446 66.9667C106.443 66.9633 106.443 66.9667 106.446 66.9667C106.449 66.9633 106.456 66.9566 106.463 66.9533L106.446 66.9667ZM106.278 66.648C106.285 66.6446 106.291 66.6379 106.298 66.6346C106.295 66.6346 106.278 66.648 106.278 66.648ZM95.0082 55.6848L94.9914 55.6982C94.9981 55.6949 95.0048 55.6882 95.0082 55.6848ZM175.287 61.1765C175.291 61.1765 175.294 61.1765 175.297 61.1765C175.294 61.1798 175.291 61.1865 175.287 61.1899C175.287 61.1865 175.287 61.1798 175.287 61.1765ZM179.14 71.4989C179.154 71.5626 179.133 71.5962 179.073 71.6197C179.036 71.3513 179.073 71.0494 178.797 70.8649C178.72 70.8246 178.639 70.7978 178.555 70.7843C177.799 70.7575 177.042 70.7508 176.282 70.7542C176.185 70.677 176.138 70.5462 176.145 70.3348C176.158 69.7477 176.131 69.1573 176.121 68.5669C176.124 67.7685 176.131 66.9667 176.134 66.1683C176.242 65.9066 176.353 65.6449 176.461 65.3833C176.514 65.3229 176.568 65.2591 176.622 65.1988C176.693 65.1451 176.763 65.0948 176.834 65.0411H176.891L176.938 65.0143C177.076 65.0176 177.2 64.9841 177.294 64.8767C177.489 64.8734 177.688 64.8734 177.883 64.87C178.024 65.0109 178.202 65.021 178.384 65.0243C178.458 65.1384 178.565 65.1887 178.693 65.2055C178.717 65.286 178.77 65.3363 178.848 65.3598C178.864 65.4873 178.922 65.5913 179.033 65.6617L179.036 65.6684C179.033 65.806 179.07 65.9301 179.18 66.0207C179.191 66.1213 179.204 66.2219 179.214 66.3192C179.211 66.9331 179.214 67.5504 179.201 68.1643C179.197 68.3052 179.197 68.4461 179.197 68.587C179.13 68.7816 179.137 68.9896 179.133 69.1942C179.13 69.9658 179.133 70.7273 179.14 71.4989ZM197.591 61.8105C197.591 61.8072 197.591 61.8072 197.591 61.8105V61.8105ZM195.177 63.9005C195.174 63.9005 195.17 63.9005 195.167 63.9005C195.167 63.8871 195.167 63.8703 195.167 63.8569C195.17 63.8737 195.174 63.8871 195.177 63.9005ZM215.642 69.637C215.652 69.315 215.682 68.9929 215.662 68.6742C215.618 67.9463 215.746 67.2653 216.129 66.6379C216.183 66.5843 216.234 66.5239 216.291 66.4769C216.375 66.4568 216.435 66.4098 216.466 66.3293C216.466 66.3326 216.466 66.3327 216.466 66.336C217.111 66.1079 217.7 66.185 218.224 66.6446C218.56 67.2451 218.698 67.8859 218.685 68.5736C218.675 69.0332 218.698 69.4928 218.708 69.9557C218.432 70.4925 217.989 70.6703 217.4 70.6133C216.98 70.5696 216.55 70.6401 216.123 70.5797C216.018 70.5428 215.945 70.4757 215.894 70.3784C215.82 70.1268 215.854 69.835 215.642 69.637ZM216.291 66.4769C216.345 66.4199 216.395 66.3628 216.466 66.3259C216.408 66.3763 216.351 66.4266 216.291 66.4769ZM213.843 66.3394C213.847 66.336 213.85 66.3326 213.85 66.3293C213.874 66.4199 213.937 66.4668 214.025 66.4903C214.079 66.5507 214.132 66.6077 214.183 66.6681C214.294 66.9667 214.482 67.2586 214.499 67.5605C214.543 68.3488 214.583 69.1372 214.546 69.9255C214.452 70.1 214.371 70.3013 214.28 70.4791C213.857 70.6837 213.403 70.5462 212.966 70.6032C212.243 70.7005 211.819 70.412 211.688 69.6941C211.668 69.684 211.651 69.6773 211.628 69.6672C211.89 69.3955 211.829 69.0433 211.823 68.7212C211.813 68.1006 211.907 67.5068 212.169 66.9398C212.199 66.8694 212.233 66.799 212.266 66.7252C212.283 66.6916 212.307 66.6614 212.324 66.6279C212.367 66.5675 212.418 66.5138 212.465 66.4568C212.522 66.4065 212.579 66.3595 212.633 66.3092C212.67 66.2756 212.703 66.2387 212.727 66.2018C212.737 66.1917 212.747 66.1817 212.757 66.1683C212.754 66.1683 212.751 66.1683 212.747 66.1683C212.747 66.1649 212.747 66.1649 212.751 66.1616C212.757 66.1683 212.764 66.1716 212.771 66.175C213.144 66.1347 213.483 66.2924 213.843 66.3394ZM198.939 69.6404C198.986 68.7615 198.825 67.8725 199.094 67.007C199.121 66.9331 199.151 66.8593 199.175 66.7855C199.188 66.752 199.205 66.7218 199.222 66.6882C199.255 66.6279 199.296 66.5742 199.336 66.5205C199.383 66.4769 199.43 66.44 199.481 66.3997C199.618 66.3259 199.77 66.3259 199.921 66.3293C200.049 66.3326 200.173 66.3326 200.301 66.3326C200.429 66.336 200.553 66.3494 200.671 66.4031C200.698 66.4199 200.725 66.44 200.751 66.4534C200.798 66.497 200.839 66.544 200.883 66.5943C200.903 66.6212 200.916 66.648 200.936 66.6748C200.967 66.7319 201 66.7922 201.03 66.8526C201.215 67.1277 201.205 67.5471 201.599 67.6645C201.602 68.53 201.605 69.3955 201.609 70.261C201.552 70.3046 201.494 70.3549 201.441 70.4086C200.634 70.7307 199.807 70.6233 198.976 70.5193C198.946 70.5026 198.926 70.4824 198.906 70.4623C198.963 70.1939 198.926 69.9121 198.939 69.6404ZM203.078 67.6611C203.471 67.5471 203.454 67.1311 203.633 66.8593C203.66 66.799 203.69 66.7419 203.72 66.6782C203.737 66.6513 203.754 66.6245 203.771 66.5977C203.808 66.5507 203.851 66.5071 203.895 66.4635C203.945 66.4299 203.996 66.3997 204.046 66.3729C204.161 66.3327 204.282 66.3259 204.399 66.3226C204.52 66.3226 204.645 66.3226 204.766 66.3259C204.887 66.3327 205.001 66.3561 205.109 66.4065C205.159 66.4366 205.213 66.4668 205.263 66.497C205.31 66.5339 205.354 66.5775 205.398 66.6212C205.415 66.6446 205.431 66.6748 205.452 66.6983C205.482 66.7553 205.509 66.8191 205.536 66.8761C205.774 67.1948 205.569 67.7819 206.117 67.9194C206.117 67.9295 206.117 67.9396 206.117 67.9496C206.117 68.6172 206.121 69.2848 206.121 69.9524C205.452 70.8213 203.935 70.8917 203.058 70.0933C203.064 69.2882 203.071 68.473 203.078 67.6611ZM207.593 70.1906C207.539 69.315 207.59 68.4361 207.597 67.5571C207.825 67.4565 207.916 67.2418 207.99 67.017C208.024 66.8996 208.044 66.7788 208.087 66.6614C208.114 66.6111 208.145 66.5675 208.182 66.5239C208.245 66.4735 208.319 66.44 208.393 66.4065C208.447 66.3897 208.501 66.3729 208.551 66.3528C208.635 66.3326 208.723 66.3259 208.81 66.3192C208.962 66.3159 209.109 66.3159 209.261 66.3159C209.378 66.3159 209.493 66.336 209.6 66.383C209.651 66.4098 209.701 66.4434 209.752 66.4735C209.826 66.5339 209.883 66.6111 209.926 66.695C209.94 66.7252 209.953 66.7587 209.967 66.7889C209.99 66.8593 210.014 66.9298 210.041 67.0002C210.36 67.8255 210.216 68.691 210.256 69.5431C210.269 69.8417 210.222 70.1537 210.29 70.4455C210.266 70.469 210.242 70.4891 210.212 70.5059C209.419 70.6166 208.622 70.6636 207.829 70.4757C207.755 70.3751 207.674 70.2778 207.593 70.1906ZM218.816 98.5647C218.779 98.4875 218.735 98.4171 218.668 98.3533C218.274 98.0481 217.804 98.0984 217.353 98.0984C214.482 98.0917 211.611 98.095 208.74 98.0984C208.393 98.0984 208.04 98.0783 207.704 98.2057C207.644 98.246 207.593 98.2862 207.546 98.3332C207.526 98.3164 207.506 98.2997 207.492 98.2795C207.502 98.2024 207.519 98.1252 207.546 98.0481C207.566 97.8803 207.556 97.7193 207.449 97.5851C207.573 97.5113 207.667 97.4006 207.724 97.253C208.087 96.2935 208.719 95.5086 209.352 94.7269C209.382 94.6632 209.409 94.5994 209.425 94.5323C209.604 94.6128 209.775 94.5659 209.943 94.4988C212.219 93.6098 214.465 93.5796 216.681 94.6967C216.785 94.7504 216.903 94.7605 217.017 94.7303C217.03 94.841 217.084 94.945 217.165 95.0422C217.935 95.9547 218.385 97.0249 218.712 98.1554C218.738 98.2494 218.792 98.3332 218.876 98.3835C218.859 98.4439 218.849 98.5077 218.816 98.5647ZM218.224 66.6413C218.234 66.5809 218.254 66.5306 218.278 66.4803C218.258 66.5339 218.237 66.5843 218.224 66.6413ZM220.171 70.1839C220.147 69.6236 220.194 69.06 220.164 68.5032C220.127 67.906 220.238 67.3424 220.49 66.8023C221.018 66.2152 221.647 66.0475 222.39 66.3394L222.393 66.336L222.4 66.3293C222.423 66.4199 222.484 66.4668 222.571 66.4903C222.595 66.5708 222.645 66.6245 222.726 66.6513C222.739 66.7822 222.793 66.8862 222.907 66.9566C223.159 68.0033 223.129 69.0567 223.062 70.1101C222.975 70.2275 222.894 70.3549 222.81 70.4824C222.013 70.6535 221.213 70.6602 220.413 70.4858C220.335 70.3717 220.255 70.2744 220.171 70.1839ZM224.689 70.1604C224.619 69.0969 224.575 68.0301 224.847 66.9768C224.965 66.903 225.015 66.7889 225.029 66.6547C225.109 66.6312 225.16 66.5809 225.18 66.5004C225.311 66.487 225.412 66.4232 225.479 66.3092L225.483 66.3058C226.138 66.071 226.69 66.2186 227.16 66.6748C227.15 66.7319 227.144 66.7889 227.147 66.8493C227.154 66.9466 227.167 67.0439 227.191 67.1411C227.406 67.9597 227.328 68.7916 227.349 69.6236C227.355 69.8987 227.322 70.1805 227.379 70.4455C226.575 70.6804 225.765 70.6334 224.951 70.4925C224.83 70.412 224.76 70.2879 224.689 70.1604ZM186.597 65.2625C186.621 65.3665 186.678 65.4504 186.779 65.5074C186.954 65.9636 186.98 66.4366 186.977 66.9197C186.967 67.906 186.984 68.8889 186.967 69.8752C186.964 70.0161 186.967 70.1604 186.967 70.3013C186.762 70.7407 187.051 71.2943 186.728 71.7136C186.358 71.7606 186.382 71.4519 186.338 71.2439C186.244 70.8045 185.958 70.5629 185.552 70.6267C184.61 70.7743 184.066 70.4187 183.867 69.533C183.871 69.533 183.877 69.533 183.881 69.533C183.961 68.3052 183.817 67.0707 184.045 65.8496C184.156 65.7724 184.193 65.6584 184.2 65.5342C184.24 65.4638 184.294 65.4034 184.351 65.3497L184.355 65.3464C184.408 65.296 184.462 65.239 184.519 65.1921C184.577 65.1518 184.634 65.1115 184.694 65.0713C184.701 65.0713 184.711 65.0746 184.718 65.0746C185.346 65.1082 185.965 65.239 186.597 65.2625ZM182.724 71.6163C182.69 71.4553 182.637 71.3177 182.569 71.207C182.543 70.9152 182.472 70.8548 182.146 70.8414C181.954 70.7642 181.722 70.7374 181.453 70.7609C181.12 70.7877 180.764 70.8481 180.435 70.677C180.377 70.6267 180.327 70.5696 180.28 70.5059C180.179 70.2241 180.24 69.9255 180.216 69.6337C180.189 69.3016 180.273 68.9493 180.162 68.634C180.162 67.8087 180.159 66.9835 180.159 66.1582C180.182 66.118 180.186 66.0743 180.176 66.0307C180.287 65.9368 180.32 65.8127 180.32 65.6751L180.324 65.6718C180.435 65.598 180.488 65.4906 180.502 65.3598C180.502 65.3598 180.498 65.3598 180.498 65.3631C180.539 65.2994 180.593 65.2457 180.653 65.2021C180.7 65.1417 180.751 65.0881 180.818 65.0512L180.814 65.0545C180.996 65.0377 181.174 65.021 181.315 64.8868C181.315 64.8868 181.315 64.8868 181.319 64.8868C181.514 64.8868 181.712 64.8901 181.907 64.8901C182.001 64.9941 182.122 65.0277 182.257 65.0243C182.287 65.0545 182.321 65.0646 182.361 65.0579C182.428 65.1115 182.495 65.1619 182.563 65.2122C182.559 65.2122 182.559 65.2088 182.559 65.2088C182.573 65.3397 182.637 65.4403 182.751 65.5074C182.788 65.5711 182.825 65.6349 182.862 65.6986C183.054 66.4199 183.06 67.1512 183.05 67.8892C183.044 68.4193 183.064 68.9527 183.074 69.4827C182.815 69.7511 182.885 70.1 182.845 70.422C182.795 70.8078 182.98 71.2305 182.724 71.6163ZM256.767 73.0588C256.767 73.0656 256.767 73.0689 256.767 73.0756C256.767 73.0756 256.767 73.0756 256.763 73.0756C256.763 73.0689 256.767 73.0656 256.767 73.0588ZM239.186 66.8258C239.19 66.8258 239.19 66.8258 239.193 66.8292C239.371 66.6782 239.375 66.4534 239.439 66.2521C239.728 65.3363 240.064 65.1048 241.015 65.1585C241.177 65.1686 241.335 65.1786 241.493 65.1317C241.506 65.1283 241.52 65.125 241.53 65.1182C241.594 65.1719 241.671 65.1988 241.762 65.2088C241.785 65.2893 241.836 65.3397 241.916 65.3631C241.93 65.494 241.987 65.6013 242.098 65.6751C242.145 65.8831 242.232 66.0911 242.236 66.2991C242.246 67.0942 242.253 67.8859 242.256 68.6809C242.236 68.7548 242.226 68.8319 242.216 68.9124C242.189 69.1774 242.199 69.4458 242.199 69.7108C242.189 70.724 242.169 70.7776 241.177 70.7508C240.938 70.7441 240.73 70.7642 240.545 70.8179C240.414 70.828 240.292 70.8548 240.192 70.9118C240.05 70.989 240.003 71.1165 239.99 71.2641C239.929 71.3781 239.882 71.5157 239.855 71.6801C239.61 71.9048 239.489 71.7706 239.428 71.5224C239.365 71.2607 239.415 70.9655 239.19 70.7609C239.237 69.4458 239.227 68.1375 239.186 66.8258ZM246.966 69.8081C246.956 69.8014 246.949 69.7981 246.939 69.7914C247.037 68.4864 246.842 67.168 247.091 65.8663C247.091 65.8663 247.091 65.8663 247.094 65.8697C247.275 65.8965 247.376 65.7691 247.497 65.6684C248.274 64.9975 248.506 64.9639 249.383 65.4068C249.535 65.4839 249.679 65.5577 249.841 65.5443C249.851 65.6684 249.891 65.7758 249.995 65.8563C250.005 67.0573 250.016 68.2583 250.019 69.4592C250.019 69.6471 250.019 69.8081 250.016 69.9457C249.915 70.7877 249.447 70.8078 248.809 70.7676C248.519 70.7508 248.224 70.7575 247.934 70.781C247.911 70.7844 247.887 70.7877 247.867 70.7911C247.686 70.7944 247.514 70.828 247.376 70.9487C247.255 71.0594 247.228 71.207 247.228 71.3714C247 70.8816 247.319 70.2878 246.966 69.8081ZM243.268 68.899C243.261 68.8017 243.248 68.7044 243.217 68.6172C243.221 68.1777 243.221 67.7416 243.211 67.3022C243.197 66.7151 243.217 66.1314 243.402 65.5644C243.453 65.494 243.503 65.4235 243.554 65.3531C243.597 65.2927 243.655 65.239 243.708 65.1887C243.739 65.1585 243.765 65.1283 243.792 65.1015C243.802 65.1048 243.809 65.1082 243.819 65.1115C244.505 65.1216 245.188 65.1518 245.769 65.5879C245.793 65.5879 245.813 65.5845 245.837 65.5845C246.032 66.1381 246.122 66.7084 246.112 67.3022C246.095 68.1308 246.122 68.9627 246.132 69.7914C246.105 69.8148 246.079 69.835 246.055 69.8618C245.927 70.4623 245.554 70.6938 244.952 70.6099C244.196 70.5059 243.574 70.6636 243.342 71.5157C243.285 71.3983 243.291 71.2641 243.288 71.1332C243.281 70.3885 243.315 69.6438 243.268 68.899ZM237.902 66.3159C237.902 66.3125 237.902 66.3092 237.902 66.3058C237.905 66.3092 237.909 66.3125 237.912 66.3159C237.909 66.3159 237.905 66.3159 237.902 66.3159ZM227.836 62.4144C227.85 62.3741 227.87 62.3305 227.9 62.2869C227.876 62.3372 227.856 62.3775 227.836 62.4144ZM211.577 62.1493C211.577 62.146 211.577 62.146 211.577 62.1426H211.581C211.581 62.146 211.577 62.1493 211.577 62.1493ZM139.999 73.3943L140.003 73.3977H139.999V73.3943ZM137.437 101.725C137.437 101.721 137.437 101.718 137.437 101.715L137.441 101.718C137.441 101.721 137.441 101.725 137.437 101.725ZM236.386 71.7035C236.379 71.821 236.339 71.9216 236.214 71.9786C236.295 71.9216 236.349 71.8344 236.386 71.7035ZM223.217 61.0087L223.223 61.0154C223.22 61.0121 223.22 61.0121 223.217 61.0087ZM220.978 60.8511L220.981 60.8477C220.981 60.8477 220.981 60.8477 220.978 60.8511ZM219.384 62.7297C219.303 62.6894 219.249 62.6257 219.233 62.5284C219.266 62.6089 219.317 62.676 219.384 62.7297ZM209.668 61.0087L209.674 61.0154C209.671 61.0121 209.671 61.0121 209.668 61.0087ZM186.281 58.2746L186.288 58.2813C186.285 58.278 186.285 58.278 186.281 58.2746ZM172.614 70.8414C172.611 70.8414 172.604 70.8414 172.601 70.8414L172.577 70.8213C172.588 70.828 172.601 70.8347 172.614 70.8414ZM172.029 72.0222C171.962 72.0055 171.888 71.9853 171.804 71.9484C171.888 71.9786 171.962 72.0021 172.029 72.0222ZM169.37 94.794C169.367 94.7974 169.363 94.8007 169.357 94.8074C169.357 94.8007 169.353 94.794 169.353 94.7839C169.36 94.7906 169.363 94.7906 169.37 94.794ZM159.045 87.2157C159.045 87.2258 159.045 87.2325 159.045 87.2425C159.062 87.2593 159.069 87.2794 159.069 87.2962C159.062 87.2794 159.055 87.2593 159.045 87.2425C159.042 87.2425 159.042 87.2425 159.038 87.2425C159.042 87.2325 159.042 87.2258 159.045 87.2157ZM157.895 74.1827C157.895 74.1894 157.895 74.1961 157.895 74.2028C157.892 74.1994 157.889 74.1961 157.885 74.1927C157.889 74.1894 157.892 74.186 157.895 74.1827ZM155.794 50.6326C155.794 50.6561 155.791 50.6796 155.791 50.6997C155.777 50.6662 155.764 50.6393 155.754 50.6091C155.767 50.6192 155.781 50.6259 155.794 50.6326ZM155.707 41.0046C155.989 41.0147 156.15 41.0952 156.15 41.4072C156.087 41.1824 155.952 41.0818 155.67 41.0046C155.683 41.008 155.693 41.0046 155.707 41.0046ZM153.652 12.0602C153.726 12.1675 153.753 12.2917 153.76 12.4225C153.71 12.0803 153.568 11.9562 153.185 11.8824C153.367 11.8723 153.538 11.8958 153.652 12.0602ZM145.015 17.2063C145.019 17.2063 145.022 17.2097 145.025 17.2097C145.022 17.213 145.019 17.2164 145.015 17.2197C145.019 17.213 145.015 17.2097 145.015 17.2063ZM139.337 80.7344C139.344 80.7545 139.354 80.7747 139.36 80.7948C139.354 80.7948 139.344 80.7948 139.337 80.7948C139.333 80.7747 139.333 80.7545 139.337 80.7344ZM138.732 87.3801C138.728 87.3868 138.725 87.3935 138.725 87.4036C138.725 87.3935 138.725 87.3835 138.725 87.3734C138.725 87.3767 138.728 87.3801 138.732 87.3801ZM137.595 99.9368C137.599 99.9401 137.602 99.9401 137.605 99.9435C137.602 99.9502 137.599 99.9535 137.595 99.9603C137.599 99.9502 137.599 99.9435 137.595 99.9368Z" fill="url(#paint0_linear_533_332)"/>
<defs>
<linearGradient id="paint0_linear_533_332" x1="136.019" y1="0" x2="136.019" y2="112.997" gradientUnits="userSpaceOnUse">
<stop stop-color="#E45D25"/>
<stop offset="1" stop-color="#F58E1E"/>
</linearGradient>
</defs>
</svg>
