<svg width="25" height="25" viewBox="0 0 25 25" fill="none" xmlns="http://www.w3.org/2000/svg">
<path d="M7.32327 0.0887757C5.99306 0.151272 5.08473 0.363758 4.29202 0.675196C3.45839 0.990958 2.70343 1.48428 2.07952 2.12093C1.44545 2.74653 0.954959 3.50248 0.642019 4.33641C0.334728 5.1322 0.125353 6.04255 0.0670192 7.37163C0.00868585 8.70071 -0.00485582 9.12985 0.00139418 12.5244C0.00764418 15.919 0.0232692 16.344 0.0878525 17.6772C0.151394 19.0073 0.362853 19.9156 0.674311 20.7093C0.995144 21.5311 1.42431 22.2269 2.12014 22.9206C2.74639 23.5549 3.50312 24.0454 4.33785 24.358C5.13264 24.6653 6.04202 24.8747 7.37223 24.933C8.70348 24.9913 9.1316 25.0049 12.5254 24.9986C15.9191 24.9924 16.3462 24.9767 17.6785 24.9132C19.0118 24.8507 19.9149 24.6372 20.7097 24.3268C21.543 24.0109 22.2976 23.5176 22.9212 22.881C23.5555 22.2548 24.046 21.4982 24.3587 20.6635C24.666 19.8687 24.8754 18.9594 24.9326 17.6303C24.991 16.2971 25.0056 15.87 24.9983 12.4765C24.992 9.08298 24.9774 8.65697 24.9139 7.32372C24.8514 5.99047 24.6389 5.08637 24.3264 4.29163C24.0108 3.45852 23.5178 2.70399 22.8816 2.08031C22.2557 1.44616 21.4993 0.955692 20.6649 0.642906C19.8691 0.336676 18.9608 0.126273 17.6295 0.0700269C16.2993 0.0106558 15.8712 -0.00496817 12.4764 0.00128142C9.0816 0.00753101 8.6566 0.023155 7.32327 0.0887757ZM7.4691 22.6842C6.25035 22.6321 5.58889 22.429 5.14827 22.2592C4.60448 22.0605 4.11243 21.7419 3.70869 21.327C3.29238 20.925 2.97195 20.4344 2.77119 19.8916C2.59931 19.4511 2.39306 18.7896 2.33681 17.571C2.27431 16.2544 2.26181 15.8586 2.25348 12.5213C2.24723 9.18401 2.25973 8.78925 2.31702 7.47163C2.3691 6.254 2.57327 5.59154 2.74202 5.15094C2.96702 4.56661 3.23889 4.15101 3.67431 3.71146C4.07663 3.29505 4.56761 2.97463 5.11077 2.77402C5.55139 2.60215 6.21181 2.398 7.43056 2.33967C8.74827 2.27717 9.14306 2.26468 12.4806 2.25634C15.817 2.25009 16.2129 2.26259 17.5326 2.32092C18.7493 2.373 19.4118 2.57507 19.8524 2.74589C20.4358 2.97088 20.8524 3.24065 21.292 3.67812C21.7316 4.1156 22.0014 4.52911 22.2295 5.11345C22.4014 5.553 22.6066 6.21338 22.6639 7.43309C22.7264 8.75071 22.741 9.14652 22.7472 12.4828C22.7524 15.819 22.741 16.2148 22.6837 17.5324C22.6306 18.7511 22.4285 19.4125 22.2587 19.8552C22.0337 20.4385 21.7618 20.8551 21.3254 21.2926C20.9233 21.7089 20.4327 22.0293 19.8899 22.23C19.4504 22.4019 18.7879 22.6071 17.5712 22.6654C16.2524 22.7279 15.8576 22.7404 12.5191 22.7477C9.18056 22.755 8.78785 22.7404 7.4691 22.6842ZM17.6597 5.81965C17.6601 6.11635 17.7485 6.40626 17.9138 6.65271C18.079 6.89916 18.3136 7.09108 18.5879 7.20419C18.8622 7.3173 19.1639 7.34652 19.4548 7.28816C19.7457 7.2298 20.0128 7.08647 20.2222 6.87631C20.4317 6.66615 20.5741 6.3986 20.6314 6.1075C20.6888 5.8164 20.6585 5.51483 20.5444 5.24093C20.4304 4.96704 20.2376 4.73312 19.9906 4.56878C19.7435 4.40444 19.4533 4.31705 19.1566 4.31767C18.759 4.31849 18.3779 4.47717 18.0972 4.75882C17.8165 5.04046 17.6592 5.42203 17.6597 5.81965ZM6.08264 12.513C6.08596 14.2151 6.76534 15.8462 7.97134 17.0474C9.17733 18.2486 10.8112 18.9216 12.5134 18.9183C14.2156 18.915 15.8468 18.2356 17.0481 17.0297C18.2494 15.8238 18.9224 14.1901 18.9191 12.488C18.8946 10.7999 18.2059 9.18946 17.0022 8.00557C15.7986 6.82167 14.1769 6.15966 12.4885 6.16295C10.8002 6.16623 9.18109 6.83456 7.98206 8.02313C6.78303 9.21171 6.10061 10.8248 6.08264 12.513ZM8.33369 12.5088C8.33204 11.6848 8.5748 10.8787 9.03127 10.1927C9.48774 9.5066 10.1374 8.97129 10.8981 8.65442C11.6589 8.33756 12.4965 8.25337 13.305 8.41252C14.1136 8.57166 14.8568 8.96699 15.4407 9.5485C16.0246 10.13 16.4229 10.8716 16.5853 11.6795C16.7477 12.4874 16.6669 13.3252 16.353 14.0872C16.0392 14.8491 15.5064 15.5009 14.8221 15.9601C14.1379 16.4192 13.3328 16.6652 12.5087 16.6669C11.9615 16.668 11.4195 16.5613 10.9135 16.3529C10.4076 16.1445 9.94765 15.8386 9.55996 15.4524C9.17228 15.0663 8.86445 14.6076 8.65404 14.1026C8.44364 13.5975 8.33478 13.0559 8.33369 12.5088Z" fill="url(#paint0_linear_112_526)"/>
<defs>
<linearGradient id="paint0_linear_112_526" x1="-5.42402e-08" y1="13" x2="25" y2="13" gradientUnits="userSpaceOnUse">
<stop stop-color="#E45D25"/>
<stop offset="1" stop-color="#F58E1E"/>
</linearGradient>
</defs>
</svg>
