<svg width="42" height="42" viewBox="0 0 42 42" fill="none" xmlns="http://www.w3.org/2000/svg">
<path fill-rule="evenodd" clip-rule="evenodd" d="M21 2C18.5049 2 16.0342 2.49145 13.729 3.44629C11.4238 4.40113 9.32928 5.80066 7.56497 7.56497C5.80066 9.32928 4.40113 11.4238 3.44629 13.729C2.49145 16.0342 2 18.5049 2 21C2 23.4951 2.49145 25.9658 3.44629 28.271C4.40113 30.5762 5.80066 32.6707 7.56497 34.435C9.32928 36.1993 11.4238 37.5989 13.729 38.5537C16.0342 39.5085 18.5049 40 21 40C26.0391 40 30.8718 37.9982 34.435 34.435C37.9982 30.8718 40 26.0391 40 21C40 15.9609 37.9982 11.1282 34.435 7.56497C30.8718 4.00178 26.0391 2 21 2ZM12.9636 1.59853C15.5115 0.543181 18.2422 0 21 0C26.5695 5.96046e-08 31.911 2.21249 35.8492 6.15076C39.7875 10.089 42 15.4305 42 21C42 26.5695 39.7875 31.911 35.8492 35.8492C31.911 39.7875 26.5695 42 21 42C18.2422 42 15.5115 41.4568 12.9636 40.4015C10.4158 39.3461 8.10079 37.7993 6.15076 35.8492C4.20073 33.8992 2.65388 31.5842 1.59853 29.0364C0.543181 26.4885 0 23.7578 0 21C0 18.2422 0.543181 15.5115 1.59853 12.9636C2.65388 10.4158 4.20073 8.10079 6.15076 6.15076C8.10079 4.20073 10.4158 2.65388 12.9636 1.59853ZM31.7809 14.4818L19.715 29.5642L10.3598 21.7682L11.6402 20.2318L19.4279 26.7215L30.2191 13.2324L31.7809 14.4818Z" fill="#E45D25"/>
</svg>
