<svg width="17" height="17" viewBox="0 0 17 17" fill="none" xmlns="http://www.w3.org/2000/svg">
<path fill-rule="evenodd" clip-rule="evenodd" d="M15.3326 0.868378C16.1353 0.881801 16.7635 1.5431 16.7356 2.34544L16.3072 14.6725C16.2793 15.4748 15.606 16.1143 14.8033 16.1009C14.0006 16.0875 13.3724 15.4262 13.4003 14.6238L13.7068 5.80408L2.44961 16.4964C1.8623 17.0543 0.942036 17.0389 0.394154 16.4621C-0.153729 15.8852 -0.121761 14.9654 0.465553 14.4075L11.7228 3.71521L2.89892 3.56765C2.09621 3.55423 1.46809 2.89293 1.49597 2.09059C1.52386 1.28826 2.19718 0.648721 2.99989 0.662144L15.3326 0.868378Z" fill="url(#paint0_linear_49_78)"/>
<defs>
<linearGradient id="paint0_linear_49_78" x1="1.42566" y1="1.57549" x2="15.3141" y2="16.1976" gradientUnits="userSpaceOnUse">
<stop stop-color="#E45D25"/>
<stop offset="1" stop-color="#F58E1E"/>
</linearGradient>
</defs>
</svg>
