<svg width="188" height="129" viewBox="0 0 188 129" fill="none" xmlns="http://www.w3.org/2000/svg">
<path d="M0.009289 129C0.00696675 128.759 0 128.518 0 128.277C0 110.822 0 93.3643 0 75.9093C0 75.6544 0 75.3995 0 75.1098C0.729186 75.1098 1.38871 75.1098 2.12254 75.1098C2.1295 75.3137 2.14344 75.5269 2.14344 75.7401C2.14576 79.6491 2.14808 83.5605 2.13879 87.4695C2.13879 87.8703 2.2131 88.2249 2.41049 88.5794C2.88888 89.4367 3.33707 90.3103 3.7992 91.1769C3.86654 91.302 3.9455 91.4179 4.11038 91.5222C4.11038 89.0938 4.11038 86.6654 4.11038 84.1954C9.9369 84.1954 15.6984 84.1954 21.518 84.1954C21.518 90.6834 21.518 97.1598 21.518 103.622C21.9708 103.743 27.9018 103.778 28.7471 103.669C28.7471 102.767 28.7471 101.854 28.7471 100.879C30.8116 100.879 32.8064 100.879 34.8686 100.879C34.8686 100.619 34.8709 100.42 34.8686 100.223C34.7292 90.1249 34.5736 80.0268 34.4599 69.9287C34.4297 67.3173 34.5249 64.7035 34.5806 62.0921C34.5945 61.4642 34.6828 60.8386 34.7478 60.2106C34.7617 60.0693 34.8198 59.9325 34.8616 59.7727C37.0538 59.7727 39.2181 59.7727 41.4545 59.7727C41.4545 60.9614 41.4545 62.1338 41.4545 63.3387C41.6472 63.355 41.7703 63.3735 41.8957 63.3735C42.0211 63.3735 42.1465 63.355 42.3416 63.3411C42.3416 62.7154 42.3601 62.1083 42.3346 61.5036C42.3183 61.0772 42.3532 60.6972 42.741 60.4284C42.9593 60.2755 42.9105 60.0345 42.9105 59.8167C42.9105 58.2225 42.9105 56.6283 42.9105 55.0364C42.9105 53.9242 42.9105 52.812 42.9105 51.7021C42.9105 51.519 42.9105 51.3359 42.9105 51.0903C43.296 51.0903 43.6374 51.0903 44.0461 51.0903C44.0461 48.4256 44.0461 45.8235 44.0461 43.1912C44.3271 43.1912 44.5407 43.1912 44.8124 43.1912C44.8124 45.8258 44.8124 48.4465 44.8124 51.1483C45.3535 51.1483 45.8412 51.1483 46.3776 51.1483C46.3776 55.3145 46.3776 59.4019 46.3776 63.5705C47.0859 63.5774 47.7454 63.5844 48.4073 63.5867C49.0575 63.589 49.7077 63.5867 50.358 63.5867C51.0221 63.5867 51.6886 63.5867 52.4341 63.5867C52.4387 66.2027 52.4364 68.7701 52.4364 71.3375C52.4364 73.891 52.4364 76.4422 52.4364 79.0443C53.1656 79.0443 53.8274 79.0443 54.5705 79.0443C54.5752 79.8229 54.5821 80.5528 54.5821 81.285C54.5845 82.0265 54.5821 82.768 54.5821 83.5095C54.5821 84.251 54.5821 84.9925 54.5821 85.7339C54.5821 86.4754 54.5821 87.2169 54.5821 87.9584C54.5821 88.6999 54.5821 89.4414 54.5821 90.1829C54.5821 90.9058 54.5821 91.6288 54.5821 92.3517C54.5821 93.0932 54.5821 93.8347 54.5821 94.5762C54.5821 95.3176 54.5821 96.0591 54.5821 96.8006C54.5821 97.5421 54.5821 98.2836 54.5821 99.0251C54.5821 99.7642 54.5821 100.501 54.5821 101.28C55.0048 101.28 55.381 101.28 55.8176 101.28C55.8176 97.6371 55.8176 94.0154 55.8176 90.3566C61.2702 90.3566 66.6625 90.3566 72.1221 90.3566C72.1221 94.9399 72.1221 99.5047 72.1221 104.111C73.3482 104.111 74.507 104.111 75.7285 104.111C75.8261 103.087 75.703 102.058 75.8029 100.99C76.4183 100.99 77.0058 100.99 77.6607 100.99C77.6607 100.137 77.6607 99.3333 77.6607 98.469C78.91 98.469 80.0897 98.469 81.3321 98.469C81.3321 95.9734 81.3321 93.5358 81.3321 91.0309C81.8662 91.0309 82.34 91.0309 82.8764 91.0309C82.8764 89.8955 82.8764 88.8273 82.8764 87.729C84.0074 87.729 85.0756 87.729 86.2089 87.729C86.2089 88.8598 86.2089 89.9627 86.2089 91.1375C86.9288 91.1375 87.5859 91.1375 88.2873 91.1375C88.2873 96.3233 88.2873 101.43 88.2873 106.579C89.0838 106.579 89.8316 106.579 90.6397 106.579C90.6397 106.312 90.6397 106.076 90.6397 105.84C90.6397 94.4812 90.642 83.1225 90.6281 71.7616C90.6281 71.2657 90.7651 70.9506 91.1808 70.6702C92.1027 70.0492 92.9805 69.361 93.8955 68.7238C94.202 68.5106 94.3182 68.2789 94.3158 67.9012C94.2996 65.0465 94.3065 62.1941 94.3065 59.3394C94.3065 59.1378 94.3065 58.9385 94.3065 58.6952C95.0288 58.6952 95.7022 58.6952 96.4407 58.6952C96.4407 61.9902 96.4407 65.262 96.4407 68.5987C97.0259 68.5987 97.5554 68.5987 98.1499 68.5987C98.1499 69.1872 98.1499 69.7132 98.1499 70.2971C99.0811 70.2971 99.9426 70.2971 100.86 70.2971C100.86 71.4395 100.86 72.5262 100.86 73.6848C102.27 73.7381 103.635 73.6802 105.056 73.7219C105.056 80.8262 105.056 87.875 105.056 94.9539C106.392 94.9539 107.662 94.9539 108.992 94.9539C108.992 94.502 108.992 94.0803 108.992 93.6586C108.992 93.2345 108.992 92.8105 108.992 92.3077C109.949 92.2938 110.869 92.303 111.788 92.3007C112.694 92.2984 113.6 92.3007 114.557 92.3007C114.557 90.213 114.557 88.1832 114.557 86.1696C115.002 86.0444 123.674 85.9981 124.672 86.1093C124.672 92.7062 124.672 99.3101 124.672 105.949C126.472 105.949 128.207 105.949 130.011 105.949C130.011 105.71 130.011 105.492 130.011 105.277C130.011 101.368 130.011 97.4564 130.013 93.5473C130.013 93.2623 129.928 92.9264 130.357 92.887C130.357 92.3587 130.357 91.8651 130.357 91.3159C129.519 91.3159 128.708 91.3159 127.863 91.3159C127.863 90.1064 127.863 88.9525 127.863 87.7336C129.075 87.7336 130.274 87.7336 131.53 87.7336C131.53 86.6052 131.53 85.5393 131.53 84.4109C132.97 84.4109 134.351 84.4109 135.784 84.4109C135.896 83.4956 135.998 82.6382 136.107 81.7554C135.406 81.3777 135.225 80.7081 135.201 80.0175C135.167 78.9841 135.218 77.946 135.236 76.9103C135.238 76.762 135.259 76.6137 135.285 76.4677C135.399 75.805 135.308 75.1817 134.939 74.607C134.73 74.2826 134.679 73.9258 134.707 73.5434C134.737 73.1194 134.716 72.6907 134.739 72.2667C134.755 71.9886 134.711 71.75 134.472 71.5831C134.154 71.363 134.119 71.0548 134.159 70.7003C134.303 69.4491 134.444 68.1978 134.565 66.9442C134.753 64.9723 134.932 62.9981 135.097 61.0239C135.129 60.6231 135.081 60.2176 135.069 59.7796C134.925 59.7796 134.837 59.7703 134.751 59.7819C134.303 59.8422 133.926 59.6869 133.685 59.3255C133.439 58.9593 133.22 58.5654 133.063 58.1553C132.638 57.0616 132.48 55.9007 132.289 54.7491C132.273 54.6587 132.257 54.566 132.254 54.4734C132.231 53.908 132.02 53.5743 131.411 53.3704C130.52 53.0715 129.993 52.3323 129.705 51.4425C129.626 51.1969 129.519 50.9907 129.331 50.7868C129.147 50.5898 129.143 50.2353 128.978 50.0082C128.822 49.7951 128.513 49.7116 128.439 49.4058C128.337 48.9864 128.423 48.5924 128.611 48.224C128.713 48.0224 128.736 47.8602 128.615 47.6586C128.52 47.4941 128.339 47.3342 128.464 47.1048C128.62 46.8175 128.694 46.4908 129.045 46.3286C129.835 45.9579 130.606 45.5524 131.386 45.1631C132.196 44.7576 133.007 44.3521 133.864 43.9234C134.261 44.5722 134.644 45.1978 135.029 45.8258C135.394 45.747 135.582 45.506 135.735 45.2627C136.019 44.8086 136.304 44.3474 136.527 43.8608C137.099 42.6165 137.635 41.3537 138.19 40.1001C138.371 39.6946 138.559 39.2914 138.757 38.8929C138.982 38.441 139.284 38.0773 139.716 37.7714C140.094 37.5049 140.401 37.0948 140.649 36.6939C141.132 35.913 141.348 35.0256 141.529 34.1335C141.55 34.0269 141.581 33.8902 141.534 33.8068C141.207 33.2275 141.397 32.6505 141.527 32.0759C141.634 31.6078 141.771 31.149 141.903 30.6508C141.437 30.5164 141.425 30.1851 141.523 29.812C141.546 29.7216 141.55 29.622 141.597 29.5455C141.875 29.0983 141.732 28.7021 141.457 28.2896C140.125 28.1228 138.761 28.1274 137.417 27.8587C138.255 27.7358 139.091 27.6154 139.929 27.4949C140.224 27.4532 140.517 27.4091 140.812 27.3744C141.495 27.2933 141.416 27.2608 141.615 26.6329C140.271 26.0999 138.919 25.5647 137.565 25.0271C137.572 24.9947 137.582 24.9645 137.589 24.9321C139.031 25.1847 140.473 25.4372 141.961 25.6991C142.098 25.5183 142.24 25.3306 142.414 25.0989C141.646 24.0562 140.882 23.0158 140.118 21.9754C140.129 21.9546 140.141 21.936 140.152 21.9152C140.248 21.9685 140.352 22.0079 140.438 22.0751C141.362 22.7911 142.294 23.4978 143.199 24.2346C143.492 24.4733 143.757 24.5683 144.105 24.3968C144.237 24.332 144.384 24.2949 144.527 24.2624C144.757 24.2091 144.85 24.0701 144.894 23.8407C145.101 22.7864 145.324 21.7368 145.545 20.6871C145.566 20.5898 145.607 20.4994 145.723 20.416C145.788 21.6418 145.854 22.8698 145.919 24.1049C146.471 24.2254 146.989 24.3574 147.519 24.4432C147.656 24.4664 147.837 24.376 147.964 24.2879C148.719 23.7805 149.462 23.2568 150.212 22.7424C150.363 22.6381 150.519 22.5431 150.744 22.5107C150.006 23.3634 149.267 24.2161 148.508 25.0943C148.738 25.3121 148.933 25.5068 149.144 25.6852C149.223 25.7524 149.339 25.8033 149.441 25.808C150.384 25.8636 151.327 25.9099 152.235 25.9563C152.374 25.2426 152.463 24.566 152.646 23.9195C152.857 23.1734 153.155 22.4504 153.415 21.7182C153.477 21.5444 153.566 21.373 153.587 21.1922C153.782 19.5957 154.137 18.0131 153.96 16.3865C153.93 16.1107 153.928 15.8327 153.919 15.5546C153.863 13.7125 153.842 13.7032 154.525 11.9978C154.79 11.3397 154.543 10.7211 154.522 10.0838C154.52 10.0004 154.353 9.91006 154.248 9.84286C153.751 9.51846 153.252 9.1987 152.748 8.88588C152.556 8.76539 152.477 8.61014 152.484 8.38074C152.497 7.88024 152.502 7.37974 152.481 6.87923C152.47 6.59191 152.593 6.43898 152.837 6.32312C153.117 6.18873 153.387 6.02189 153.721 5.83652C153.087 5.01162 153.111 4.10793 153.285 3.17644C153.366 3.18803 153.436 3.19729 153.538 3.20888C153.54 2.16848 153.512 1.12345 153.849 0.00195312C154.569 1.00991 155.6 1.33663 156.608 1.71432C158.041 2.25422 158.424 3.02583 158.004 4.49258C157.927 4.75905 157.832 5.01857 157.746 5.28041C158.226 5.50053 158.696 5.71603 159.162 5.93152C159.499 6.08677 159.687 6.32775 159.611 6.71935C159.601 6.77265 159.608 6.83057 159.608 6.88619C159.608 7.36815 159.669 7.8617 159.587 8.32745C159.501 8.82332 158.939 9.00637 158.675 9.40261C158.491 9.68066 158.282 9.94018 158.101 10.2206C157.915 10.5125 157.825 10.8137 157.987 11.1659C158.05 11.298 157.997 11.4857 157.99 11.6479C157.983 11.8634 157.973 12.0766 157.957 12.2921C157.948 12.4149 157.964 12.5609 157.904 12.6512C157.739 12.8992 157.753 13.161 157.727 13.4391C157.658 14.2315 157.595 15.0333 157.407 15.8002C156.979 17.5566 156.847 19.3455 156.691 21.1343C156.515 23.1641 156.35 25.1963 156.099 27.2168C156.025 27.8239 156.102 28.3012 156.385 28.8342C157.112 30.2013 157.558 31.6727 157.762 33.2089C157.806 33.538 157.811 33.874 157.801 34.2076C157.783 34.9769 157.592 35.6744 156.924 36.1401C156.924 36.2328 156.914 36.307 156.926 36.3788C157.047 37.1295 156.773 37.7343 156.197 38.1931C155.965 38.3785 155.893 38.5662 155.902 38.8512C155.944 40.3179 155.858 41.7824 155.556 43.219C155.41 43.9188 155.124 44.5907 154.92 45.2789C154.861 45.4805 154.815 45.7169 154.861 45.9138C155.208 47.3713 155.586 48.8242 155.941 50.2793C156.069 50.8007 156.148 51.3336 156.278 51.8527C156.366 52.2049 156.28 52.4945 156.109 52.8004C155.874 53.2198 155.67 53.6577 155.465 54.0933C154.994 55.1059 154.901 56.1487 155.177 57.2354C155.379 58.0255 155.528 58.8273 155.728 59.6151C155.839 60.0484 155.811 60.4562 155.665 60.8687C155.435 61.5128 155.245 62.1755 154.973 62.8035C154.583 63.7072 154.553 64.6132 154.708 65.5725C155.005 67.4192 155.242 69.2753 155.519 71.1244C155.556 71.3723 155.512 71.5553 155.335 71.7245C155.214 71.838 155.108 71.9701 154.989 72.0883C154.75 72.3269 154.676 72.5911 154.718 72.941C154.98 75.1469 155.212 77.3575 155.458 79.5657C155.635 81.1483 155.821 82.7286 156.011 84.3761C157.195 84.4201 158.354 84.3691 159.557 84.4085C159.557 84.865 159.557 85.2659 159.557 85.7316C162.92 85.7316 166.234 85.7316 169.608 85.7316C169.608 88.9177 169.608 92.0389 169.608 95.1948C172.369 95.1948 175.07 95.1948 177.826 95.1948C177.826 86.7465 177.826 78.3237 177.826 69.8731C177.984 69.8546 178.089 69.8291 178.193 69.8291C181.405 69.8267 184.619 69.8291 187.83 69.8291C187.886 69.8291 187.94 69.8383 187.995 69.8453C187.995 89.5595 187.995 109.271 187.995 128.997C125.336 129 62.6729 129 0.009289 129Z" fill="url(#paint0_linear_533_548)"/>
<defs>
<linearGradient id="paint0_linear_533_548" x1="93.9977" y1="0.00195312" x2="93.9977" y2="129" gradientUnits="userSpaceOnUse">
<stop stop-color="#E45D25"/>
<stop offset="1" stop-color="#F58E1E"/>
</linearGradient>
</defs>
</svg>
