<svg width="188" height="129" viewBox="0 0 188 129" fill="none" xmlns="http://www.w3.org/2000/svg">
<path d="M0.009289 129C0.00696675 128.759 0 128.518 0 128.277C0 110.822 0 93.3648 0 75.9097C0 75.6549 0 75.4 0 75.1103C0.729186 75.1103 1.38871 75.1103 2.12254 75.1103C2.1295 75.3142 2.14344 75.5274 2.14344 75.7406C2.14576 79.6496 2.14808 83.5609 2.13879 87.47C2.13879 87.8708 2.2131 88.2254 2.41049 88.5799C2.88888 89.4372 3.33707 90.3108 3.7992 91.1774C3.86654 91.3025 3.9455 91.4184 4.11038 91.5227C4.11038 89.0943 4.11038 86.6659 4.11038 84.1958C9.9369 84.1958 15.6984 84.1958 21.518 84.1958C21.518 90.6838 21.518 97.1603 21.518 103.623C21.9708 103.743 27.9018 103.778 28.7471 103.669C28.7471 102.768 28.7471 101.855 28.7471 100.879C30.8116 100.879 32.8064 100.879 34.8686 100.879C34.8686 100.62 34.8709 100.42 34.8686 100.224C34.7292 90.1254 34.5736 80.0273 34.4599 69.9292C34.4297 67.3178 34.5249 64.704 34.5806 62.0926C34.5945 61.4647 34.6828 60.839 34.7478 60.2111C34.7617 60.0697 34.8198 59.933 34.8616 59.7732C37.0538 59.7732 39.2181 59.7732 41.4545 59.7732C41.4545 60.9618 41.4545 62.1343 41.4545 63.3392C41.6472 63.3555 41.7703 63.374 41.8957 63.374C42.0211 63.374 42.1465 63.3555 42.3416 63.3415C42.3416 62.7159 42.3601 62.1088 42.3346 61.5041C42.3183 61.0777 42.3532 60.6977 42.741 60.4289C42.9593 60.276 42.9105 60.035 42.9105 59.8172C42.9105 58.223 42.9105 56.6288 42.9105 55.0369C42.9105 53.9247 42.9105 52.8125 42.9105 51.7025C42.9105 51.5195 42.9105 51.3364 42.9105 51.0908C43.296 51.0908 43.6374 51.0908 44.0461 51.0908C44.0461 48.4261 44.0461 45.824 44.0461 43.1917C44.3271 43.1917 44.5407 43.1917 44.8124 43.1917C44.8124 45.8263 44.8124 48.447 44.8124 51.1488C45.3535 51.1488 45.8412 51.1488 46.3776 51.1488C46.3776 55.315 46.3776 59.4024 46.3776 63.571C47.0859 63.5779 47.7454 63.5849 48.4073 63.5872C49.0575 63.5895 49.7077 63.5872 50.358 63.5872C51.0221 63.5872 51.6886 63.5872 52.4341 63.5872C52.4387 66.2032 52.4364 68.7706 52.4364 71.338C52.4364 73.8915 52.4364 76.4427 52.4364 79.0448C53.1656 79.0448 53.8274 79.0448 54.5705 79.0448C54.5752 79.8234 54.5821 80.5533 54.5821 81.2855C54.5845 82.027 54.5821 82.7685 54.5821 83.51C54.5821 84.2515 54.5821 84.9929 54.5821 85.7344C54.5821 86.4759 54.5821 87.2174 54.5821 87.9589C54.5821 88.7004 54.5821 89.4419 54.5821 90.1833C54.5821 90.9063 54.5821 91.6292 54.5821 92.3522C54.5821 93.0937 54.5821 93.8352 54.5821 94.5766C54.5821 95.3181 54.5821 96.0596 54.5821 96.8011C54.5821 97.5426 54.5821 98.2841 54.5821 99.0256C54.5821 99.7647 54.5821 100.502 54.5821 101.28C55.0048 101.28 55.381 101.28 55.8176 101.28C55.8176 97.6376 55.8176 94.0159 55.8176 90.3571C61.2702 90.3571 66.6625 90.3571 72.1221 90.3571C72.1221 94.9404 72.1221 99.5052 72.1221 104.112C73.3482 104.112 74.507 104.112 75.7285 104.112C75.8261 103.088 75.703 102.059 75.8029 100.991C76.4183 100.991 77.0058 100.991 77.6607 100.991C77.6607 100.138 77.6607 99.3337 77.6607 98.4694C78.91 98.4694 80.0897 98.4694 81.3321 98.4694C81.3321 95.9739 81.3321 93.5362 81.3321 91.0314C81.8662 91.0314 82.34 91.0314 82.8764 91.0314C82.8764 89.896 82.8764 88.8278 82.8764 87.7295C84.0074 87.7295 85.0756 87.7295 86.2089 87.7295C86.2089 88.8603 86.2089 89.9632 86.2089 91.138C86.9288 91.138 87.5859 91.138 88.2873 91.138C88.2873 96.3238 88.2873 101.431 88.2873 106.579C89.0838 106.579 89.8316 106.579 90.6397 106.579C90.6397 106.313 90.6397 106.077 90.6397 105.84C90.6397 94.4816 90.642 83.123 90.6281 71.7621C90.6281 71.2662 90.7651 70.951 91.1808 70.6707C92.1027 70.0497 92.9805 69.3615 93.8955 68.7243C94.202 68.5111 94.3182 68.2794 94.3158 67.9017C94.2996 65.047 94.3065 62.1946 94.3065 59.3398C94.3065 59.1383 94.3065 58.939 94.3065 58.6957C95.0288 58.6957 95.7022 58.6957 96.4407 58.6957C96.4407 61.9907 96.4407 65.2625 96.4407 68.5992C97.0259 68.5992 97.5554 68.5992 98.1499 68.5992C98.1499 69.1877 98.1499 69.7137 98.1499 70.2976C99.0811 70.2976 99.9426 70.2976 100.86 70.2976C100.86 71.44 100.86 72.5267 100.86 73.6853C102.27 73.7386 103.635 73.6806 105.056 73.7224C105.056 80.8267 105.056 87.8755 105.056 94.9543C106.392 94.9543 107.662 94.9543 108.992 94.9543C108.992 94.5025 108.992 94.0808 108.992 93.6591C108.992 93.235 108.992 92.811 108.992 92.3082C109.949 92.2943 110.869 92.3035 111.788 92.3012C112.694 92.2989 113.6 92.3012 114.557 92.3012C114.557 90.2135 114.557 88.1836 114.557 86.1701C115.002 86.0449 123.674 85.9986 124.672 86.1098C124.672 92.7067 124.672 99.3106 124.672 105.949C126.472 105.949 128.207 105.949 130.011 105.949C130.011 105.711 130.011 105.493 130.011 105.277C130.011 101.368 130.011 97.4569 130.013 93.5478C130.013 93.2628 129.928 92.9268 130.357 92.8875C130.357 92.3591 130.357 91.8656 130.357 91.3164C129.519 91.3164 128.708 91.3164 127.863 91.3164C127.863 90.1069 127.863 88.9529 127.863 87.7341C129.075 87.7341 130.274 87.7341 131.53 87.7341C131.53 86.6057 131.53 85.5398 131.53 84.4113C132.97 84.4113 134.351 84.4113 135.784 84.4113C135.896 83.4961 135.998 82.6387 136.107 81.7559C135.406 81.3782 135.225 80.7085 135.201 80.018C135.167 78.9846 135.218 77.9465 135.236 76.9108C135.238 76.7625 135.259 76.6142 135.285 76.4682C135.399 75.8055 135.308 75.1822 134.939 74.6075C134.73 74.2831 134.679 73.9263 134.707 73.5439C134.737 73.1199 134.716 72.6912 134.739 72.2672C134.755 71.9891 134.711 71.7505 134.472 71.5836C134.154 71.3635 134.119 71.0553 134.159 70.7008C134.303 69.4495 134.444 68.1983 134.565 66.9447C134.753 64.9728 134.932 62.9986 135.097 61.0244C135.129 60.6235 135.081 60.218 135.069 59.7801C134.925 59.7801 134.837 59.7708 134.751 59.7824C134.303 59.8427 133.926 59.6874 133.685 59.3259C133.439 58.9598 133.22 58.5659 133.063 58.1558C132.638 57.0621 132.48 55.9012 132.289 54.7496C132.273 54.6592 132.257 54.5665 132.254 54.4739C132.231 53.9085 132.02 53.5748 131.411 53.3709C130.52 53.072 129.993 52.3328 129.705 51.443C129.626 51.1974 129.519 50.9912 129.331 50.7873C129.147 50.5903 129.143 50.2358 128.978 50.0087C128.822 49.7955 128.513 49.7121 128.439 49.4063C128.337 48.9869 128.423 48.5929 128.611 48.2245C128.713 48.0229 128.736 47.8607 128.615 47.6591C128.52 47.4946 128.339 47.3347 128.464 47.1053C128.62 46.818 128.694 46.4913 129.045 46.3291C129.835 45.9583 130.606 45.5528 131.386 45.1636C132.196 44.7581 133.007 44.3526 133.864 43.9239C134.261 44.5727 134.644 45.1983 135.029 45.8263C135.394 45.7475 135.582 45.5065 135.735 45.2632C136.019 44.809 136.304 44.3479 136.527 43.8613C137.099 42.617 137.635 41.3542 138.19 40.1006C138.371 39.6951 138.559 39.2919 138.757 38.8934C138.982 38.4415 139.284 38.0777 139.716 37.7719C140.094 37.5054 140.401 37.0953 140.649 36.6944C141.132 35.9135 141.348 35.0261 141.529 34.134C141.55 34.0274 141.581 33.8907 141.534 33.8072C141.207 33.228 141.397 32.651 141.527 32.0763C141.634 31.6083 141.771 31.1495 141.903 30.6513C141.437 30.5169 141.425 30.1856 141.523 29.8125C141.546 29.7221 141.55 29.6225 141.597 29.546C141.875 29.0988 141.732 28.7026 141.457 28.2901C140.125 28.1233 138.761 28.1279 137.417 27.8591C138.255 27.7363 139.091 27.6158 139.929 27.4953C140.224 27.4536 140.517 27.4096 140.812 27.3749C141.495 27.2938 141.416 27.2613 141.615 26.6334C140.271 26.1004 138.919 25.5652 137.565 25.0276C137.572 24.9951 137.582 24.965 137.589 24.9326C139.031 25.1852 140.473 25.4377 141.961 25.6996C142.098 25.5188 142.24 25.3311 142.414 25.0994C141.646 24.0567 140.882 23.0163 140.118 21.9759C140.129 21.9551 140.141 21.9365 140.152 21.9157C140.248 21.969 140.352 22.0084 140.438 22.0755C141.362 22.7915 142.294 23.4983 143.199 24.2351C143.492 24.4738 143.757 24.5688 144.105 24.3973C144.237 24.3324 144.384 24.2954 144.527 24.2629C144.757 24.2096 144.85 24.0706 144.894 23.8412C145.101 22.7869 145.324 21.7372 145.545 20.6876C145.566 20.5903 145.607 20.4999 145.723 20.4165C145.788 21.6422 145.854 22.8703 145.919 24.1054C146.471 24.2259 146.989 24.3579 147.519 24.4437C147.656 24.4668 147.837 24.3765 147.964 24.2884C148.719 23.781 149.462 23.2573 150.212 22.7429C150.363 22.6386 150.519 22.5436 150.744 22.5112C150.006 23.3639 149.267 24.2166 148.508 25.0948C148.738 25.3126 148.933 25.5072 149.144 25.6857C149.223 25.7529 149.339 25.8038 149.441 25.8085C150.384 25.8641 151.327 25.9104 152.235 25.9568C152.374 25.2431 152.463 24.5665 152.646 23.92C152.857 23.1739 153.155 22.4509 153.415 21.7187C153.477 21.5449 153.566 21.3735 153.587 21.1927C153.782 19.5962 154.137 18.0136 153.96 16.387C153.93 16.1112 153.928 15.8332 153.919 15.5551C153.863 13.713 153.842 13.7037 154.525 11.9983C154.79 11.3402 154.543 10.7215 154.522 10.0843C154.52 10.0009 154.353 9.91055 154.248 9.84335C153.751 9.51895 153.252 9.19918 152.748 8.88637C152.556 8.76588 152.477 8.61063 152.484 8.38123C152.497 7.88073 152.502 7.38023 152.481 6.87972C152.47 6.5924 152.593 6.43947 152.837 6.32361C153.117 6.18921 153.387 6.02238 153.721 5.83701C153.087 5.01211 153.111 4.10842 153.285 3.17693C153.366 3.18851 153.436 3.19778 153.538 3.20937C153.54 2.16897 153.512 1.12394 153.849 0.00244141C154.569 1.0104 155.6 1.33712 156.608 1.71481C158.041 2.2547 158.424 3.02631 158.004 4.49306C157.927 4.75954 157.832 5.01906 157.746 5.28089C158.226 5.50102 158.696 5.71652 159.162 5.93201C159.499 6.08726 159.687 6.32824 159.611 6.71984C159.601 6.77313 159.608 6.83106 159.608 6.88667C159.608 7.36864 159.669 7.86219 159.587 8.32794C159.501 8.82381 158.939 9.00686 158.675 9.40309C158.491 9.68115 158.282 9.94067 158.101 10.221C157.915 10.513 157.825 10.8142 157.987 11.1664C158.05 11.2985 157.997 11.4862 157.99 11.6484C157.983 11.8639 157.973 12.0771 157.957 12.2926C157.948 12.4154 157.964 12.5614 157.904 12.6517C157.739 12.8997 157.753 13.1615 157.727 13.4396C157.658 14.232 157.595 15.0338 157.407 15.8007C156.979 17.5571 156.847 19.346 156.691 21.1348C156.515 23.1646 156.35 25.1967 156.099 27.2173C156.025 27.8244 156.102 28.3017 156.385 28.8347C157.112 30.2018 157.558 31.6732 157.762 33.2094C157.806 33.5385 157.811 33.8744 157.801 34.2081C157.783 34.9774 157.592 35.6749 156.924 36.1406C156.924 36.2333 156.914 36.3074 156.926 36.3793C157.047 37.13 156.773 37.7348 156.197 38.1936C155.965 38.379 155.893 38.5667 155.902 38.8517C155.944 40.3184 155.858 41.7829 155.556 43.2195C155.41 43.9193 155.124 44.5912 154.92 45.2794C154.861 45.481 154.815 45.7174 154.861 45.9143C155.208 47.3718 155.586 48.8247 155.941 50.2798C156.069 50.8012 156.148 51.3341 156.278 51.8532C156.366 52.2054 156.28 52.495 156.109 52.8009C155.874 53.2203 155.67 53.6582 155.465 54.0938C154.994 55.1064 154.901 56.1491 155.177 57.2359C155.379 58.026 155.528 58.8278 155.728 59.6156C155.839 60.0489 155.811 60.4567 155.665 60.8692C155.435 61.5133 155.245 62.176 154.973 62.804C154.583 63.7077 154.553 64.6137 154.708 65.573C155.005 67.4197 155.242 69.2758 155.519 71.1248C155.556 71.3728 155.512 71.5558 155.335 71.725C155.214 71.8385 155.108 71.9706 154.989 72.0888C154.75 72.3274 154.676 72.5916 154.718 72.9415C154.98 75.1474 155.212 77.358 155.458 79.5662C155.635 81.1488 155.821 82.7291 156.011 84.3766C157.195 84.4206 158.354 84.3696 159.557 84.409C159.557 84.8655 159.557 85.2664 159.557 85.7321C162.92 85.7321 166.234 85.7321 169.608 85.7321C169.608 88.9182 169.608 92.0394 169.608 95.1953C172.369 95.1953 175.07 95.1953 177.826 95.1953C177.826 86.747 177.826 78.3242 177.826 69.8736C177.984 69.855 178.089 69.8296 178.193 69.8296C181.405 69.8272 184.619 69.8296 187.83 69.8296C187.886 69.8296 187.94 69.8388 187.995 69.8458C187.995 89.56 187.995 109.272 187.995 128.998C125.336 129 62.6729 129 0.009289 129Z" fill="white"/>
</svg>
