<svg width="25" height="25" viewBox="0 0 25 25" fill="none" xmlns="http://www.w3.org/2000/svg">
<rect width="25" height="25" rx="2" fill="url(#paint0_linear_112_541)"/>
<path d="M16.9943 19.8067L6.10509 5.80667C6.04769 5.73276 6.01219 5.64423 6.00262 5.55114C5.99305 5.45806 6.00979 5.36415 6.05095 5.28011C6.0921 5.19607 6.15601 5.12526 6.23541 5.07575C6.31481 5.02623 6.40651 4.99998 6.50009 5H8.56675C8.64283 5.00011 8.71789 5.01759 8.78619 5.05109C8.8545 5.08459 8.91426 5.13324 8.96092 5.19333L19.8501 19.1933C19.9075 19.2672 19.943 19.3558 19.9526 19.4489C19.9621 19.5419 19.9454 19.6358 19.9042 19.7199C19.8631 19.8039 19.7992 19.8747 19.7198 19.9243C19.6404 19.9738 19.5487 20 19.4551 20H17.3884C17.3123 19.9999 17.2373 19.9824 17.169 19.9489C17.1007 19.9154 17.0409 19.8668 16.9943 19.8067Z" stroke="black" stroke-width="1.5"/>
<path d="M19.6439 5L6.31055 20" stroke="black" stroke-width="1.5" stroke-linecap="round"/>
<defs>
<linearGradient id="paint0_linear_112_541" x1="-5.42402e-08" y1="13" x2="25" y2="13" gradientUnits="userSpaceOnUse">
<stop stop-color="#E45D25"/>
<stop offset="1" stop-color="#F58E1E"/>
</linearGradient>
</defs>
</svg>
