<svg width="100" height="81" viewBox="0 0 100 81" fill="none" xmlns="http://www.w3.org/2000/svg">
<g clip-path="url(#clip0_790_810)">
<path d="M63.4531 22.1617H66.5046L75.1981 13.4683L75.6256 9.77961C59.4501 -4.49713 34.7571 -2.9588 20.4804 13.2168C16.5109 17.7102 13.6312 23.0546 12.0635 28.839C13.0318 28.4408 14.1049 28.3779 15.1151 28.6546L32.4978 25.7875C32.4978 25.7875 33.3822 24.3246 33.8391 24.4168C41.5727 15.9246 54.5878 14.9353 63.516 22.1617H63.4531Z" fill="#EA4335"/>
<path d="M87.5801 28.839C85.5807 21.4827 81.4813 14.8683 75.7765 9.80896L63.5788 22.0066C68.7303 26.215 71.6645 32.557 71.5387 39.2091V41.3762C77.5369 41.3762 82.395 46.2385 82.395 52.2326C82.395 58.2308 77.5327 63.0889 71.5387 63.0889H49.8219L47.6548 65.2853V78.3088L49.8219 80.4759H71.5387C83.9879 80.5723 95.0328 72.5034 98.7298 60.6159C102.418 48.7242 97.8915 35.8139 87.5801 28.839Z" fill="#4285F4"/>
<path d="M28.0756 80.3543H49.7925V62.9715H28.0756C26.5289 62.9715 24.999 62.6404 23.5906 61.9949L20.5391 62.938L11.7869 71.6315L11.024 74.683C15.9325 78.3884 21.9223 80.3794 28.0756 80.3543Z" fill="#34A853"/>
<path d="M28.0756 23.9599C16.0121 24.0311 5.32759 31.7563 1.47966 43.1869C-2.36827 54.6175 1.46708 67.2343 11.0282 74.5865L23.6241 61.9906C18.1582 59.5217 15.7312 53.0918 18.2001 47.6259C20.669 42.16 27.099 39.733 32.5649 42.2019C34.9709 43.2917 36.899 45.2199 37.9889 47.6259L50.5848 35.03C45.2237 28.0258 36.8949 23.9305 28.0756 23.9599Z" fill="#FBBC05"/>
</g>
<defs>
<clipPath id="clip0_790_810">
<rect width="100" height="80.4753" fill="white" transform="translate(0 0.000488281)"/>
</clipPath>
</defs>
</svg>
